<svg version="1.2" xmlns="http://www.w3.org/2000/svg" viewBox="639 924 2914 2425" width="2914" height="2425">
	<title>25528616_4900_7_04</title>
	<defs>
		<clipPath clipPathUnits="userSpaceOnUse" id="cp1">
			<path d="m2236.77 2202.14c-436.14 304.59-1035.57 91.39-1072.18-430.93-24.91-355.35 308.45-651.96 655.86-651.92 252.85 0.02 500.26 109.15 609.55 496.27 0 0 21.59 178.6-26.35 297.78-47.94 119.17-115 227-115 227z"/>
		</clipPath>
	</defs>
	<style>
		.s0 { fill: #f9f9f9 } 
		.s1 { fill: #371a45 } 
		.s2 { fill: #cccccc } 
		.s3 { fill: #22a7f0 } 
		.s4 { fill: #ffffff } 
		.s5 { fill: #1c7aea } 
		.s6 { fill: #080056 } 
		.s7 { fill: #220f2d } 
		.s8 { fill: #ffd833 } 
		.s9 { fill: #fcfcfc } 
		.s10 { fill: #ffd243 } 
		.s11 { fill: #fcac38 } 
		.s12 { fill: #e6a75c } 
		.s13 { fill: #db2c2c } 
	</style>
	<g id="Layer 1">
		<g id="&lt;Group&gt;">
			<g id="&lt;Group&gt;">
				<g id="&lt;Group&gt;">
					<g id="&lt;Group&gt;">
						<g id="&lt;Group&gt;">
							<path id="&lt;Path&gt;" class="s0" d="m2466.9 2978.1c4.7 23.7 7.2 50.2 7.2 79.7 0 215-98.4 262.5-181.5 262.5h-590.4c-233.9 0-509.4 14-569.9-307.9-34.7-184.7 94.3-516.1 163.7-675.7 24.4-56.2 41.4-91.1 41.4-91.1 812.5-82.4 1198.2 387.6 1198.2 387.6h-421.3c8.6 17.8 16 36 22.2 54 23.7 68.1 31.9 133.8 34.7 168.7 1.3 16.2 1.5 25.8 1.5 25.8 38.8-36.2 81-60.2 145.8-60.2 63.9 0 127.4 49.7 148.4 156.6z"/>
						</g>
						<g id="&lt;Group&gt;" style="opacity: .2">
							<path id="&lt;Path&gt;" class="s1" d="m2171.2 2855.9h-443.7c-185.4-79.1-355.6-19.9-355.6-19.9v-209.7h650.5l114.1 60.9c23.7 68.1 31.9 133.8 34.7 168.7z"/>
						</g>
						<g id="&lt;Group&gt;" style="opacity: .2">
							<path id="&lt;Path&gt;" class="s1" d="m2474.1 3057.8c0 215-98.4 262.5-181.5 262.5h-590.4c-233.9 0-509.4 14-569.9-307.9-34.7-184.7 94.3-516.1 163.7-675.7l65.9-11.4c0 0-225.7 471.2-146 681.5 79.6 210.3 541.9 117.4 541.9 117.4 0 0 38.4 82.9 118.3 82.9 79.9 0 110.2-79.6 118.3-172.6 0 0 21.8 69.7 73.6 77.1 48.4 7 95.8 20.5 138.2 44.8 35.1 20.2 80.9 37.5 134.8 37.5 82.6 0 121.9-108.1 125.9-215.8 4.7 23.7 7.2 50.2 7.2 79.7z"/>
						</g>
						<g id="&lt;Group&gt;">
							<path id="&lt;Compound Path&gt;" class="s1" d="m1646.4 3345.8c-219.6 0-479.6-12.3-539.1-328.7-47.9-254.9 196.8-761.2 207.3-782.6l6.2-12.7 14-1.4c426.2-43.3 734.7 66.3 918.5 165.8 200.1 108.3 297.9 225.9 302 230.9l34 41.5h-436.3c25.6 65.4 36.7 130.5 41.4 173.3 37.6-24.8 76.7-35.8 124.1-35.8 90.1 0 181 80.9 181 261.6 0 250.6-129.7 288-206.9 288h-590.4q-14 0-28.2 0c-9.1 0-18.3 0.1-27.6 0.1zm-292.2-1076.3c-37.8 80.5-237.8 521-197 738.2 54.2 288.3 289.4 287.8 516.7 287.2q14.2 0 28.3 0h590.4c103.5 0 156.1-79.8 156.1-237.2 0-145.6-65.4-210.8-130.2-210.8-50.6 0-87.9 15.5-128.6 53.3l-41.8 38.9-0.9-57.1c0-1.2-2.7-128-55.8-237.8l-17.6-36.4h402.2c-44.9-43-127.9-112.9-249.2-178.2-175.1-94.4-468-198.1-872.6-160.1z"/>
						</g>
						<g id="&lt;Group&gt;">
							<path id="&lt;Path&gt;" class="s2" d="m2474.1 3076.4c0 114.1-53 206.6-118.3 206.6-65.4 0-118.3-92.5-118.3-206.6 0-114.1 52.9-206.6 118.3-206.6 65.3 0 118.3 92.5 118.3 206.6z"/>
						</g>
						<g id="&lt;Group&gt;">
							<path id="&lt;Compound Path&gt;" class="s1" d="m2355.8 3303.7c-78 0-139-99.9-139-227.3 0-127.5 61-227.3 139-227.3 77.9 0 138.9 99.8 138.9 227.3 0 127.4-61 227.3-138.9 227.3zm0-413.3c-53 0-97.7 85.2-97.7 186 0 100.8 44.7 185.9 97.7 185.9 52.9 0 97.6-85.1 97.6-185.9 0-100.8-44.7-186-97.6-186z"/>
						</g>
						<g id="&lt;Group&gt;">
							<path id="&lt;Path&gt;" class="s1" d="m2467.2 3027.6h-222.9c-11.4 0-20.6-9.2-20.6-20.6 0-11.4 9.2-20.7 20.6-20.7h222.9c11.4 0 20.7 9.3 20.7 20.7 0 11.4-9.3 20.6-20.7 20.6z"/>
						</g>
						<g id="&lt;Group&gt;">
							<path id="&lt;Path&gt;" class="s1" d="m2465.8 3173.1h-220.1c-11.4 0-20.6-9.3-20.6-20.7 0-11.4 9.2-20.6 20.6-20.6h220.1c11.4 0 20.6 9.2 20.6 20.6 0 11.4-9.2 20.7-20.6 20.7z"/>
						</g>
						<g id="&lt;Group&gt;">
							<path id="&lt;Path&gt;" class="s1" d="m2189.3 2893.9c-1.1 1.5-2.8 4-4.2 6.2-1.4 2.3-2.8 4.6-4.2 7-2.7 4.7-5.3 9.6-7.7 14.5-4.9 9.9-9.1 20.1-12.6 30.5-1.8 5.2-3.3 10.4-4.4 15.7-0.8 5.4-1.4 10.9-2.3 16.1-2.9 10.5-6.6 20.3-18.1 31.7l-0.3 0.3c-3.7 3.6-9.6 3.6-13.3-0.1-0.1 0-0.1-0.1-0.2-0.2-2.9-3.1-5-6.3-6.6-9.5-1.9-3.3-3.1-6.7-3.8-10-0.9-3.3-1.3-6.6-1.6-10-0.1-3.3 0.1-6.6 0.5-9.9 0.7-6.5 3.3-12.6 5.1-18.8 2.2-6.1 3.7-12.4 5.9-18.5 4.1-12.2 8.9-24.1 14.6-35.5 2.9-5.8 5.9-11.4 9.1-17 1.6-2.8 3.3-5.6 5-8.3 1.8-2.9 3.5-5.4 5.8-8.7 6.6-9.3 19.5-11.4 28.8-4.8 9.3 6.6 11.4 19.4 4.9 28.7z"/>
						</g>
						<g id="&lt;Group&gt;">
							<g id="&lt;Group&gt;">
								<path id="&lt;Path&gt;" class="s0" d="m2117.1 2968.5h-294c-36.1 0-65.3-29.2-65.3-65.2v-134.6c0-36.1 29.2-65.3 65.3-65.3h294c36 0 65.3 29.2 65.3 65.3v134.6c0 36-29.3 65.2-65.3 65.2z"/>
							</g>
							<g id="&lt;Group&gt;" style="opacity: .2">
								<path id="&lt;Path&gt;" class="s1" d="m2181.9 2910.7c-3.7 32.6-31.3 57.9-64.8 57.9h-294c-36.1 0-65.3-29.3-65.3-65.4v-134.6c0-36 29.2-65.2 65.3-65.2h23.2c-0.3 2.4-0.5 4.9-0.5 7.5v134.6c0 36 29.3 65.2 65.4 65.2z"/>
							</g>
							<g id="&lt;Group&gt;">
								<path id="&lt;Compound Path&gt;" class="s1" d="m2117.1 2989.2h-294c-47.4 0-86-38.6-86-85.9v-134.6c0-47.4 38.6-86 86-86h294c47.4 0 85.9 38.6 85.9 86v134.6c0 47.3-38.5 85.9-85.9 85.9zm-294-265.2c-24.6 0-44.7 20.1-44.7 44.7v134.6c0 24.6 20.1 44.6 44.7 44.6h294c24.6 0 44.6-20 44.6-44.6v-134.6c0-24.6-20-44.7-44.6-44.7z"/>
							</g>
							<g id="&lt;Group&gt;">
								<path id="&lt;Path&gt;" class="s1" d="m2109.3 2981.2c-7 0-12.6-5.7-12.6-12.6v-88.2c0-11.8-6.2-22.9-16.2-29l-6.7-4.1c-17.4-10.7-28.3-30.1-28.3-50.6v-93.3c0-7 5.7-12.7 12.7-12.7 6.9 0 12.6 5.7 12.6 12.7v93.3c0 11.7 6.2 22.9 16.2 29l6.7 4.1c17.4 10.7 28.3 30.1 28.3 50.6v88.2c0 6.9-5.7 12.6-12.7 12.6z"/>
							</g>
						</g>
						<g id="&lt;Group&gt;">
							<g id="&lt;Group&gt;">
								<path id="&lt;Path&gt;" class="s3" d="m1883.3 2837.8c0.8 28.7 20.4 51.5 43.8 50.8l39.4-1.1-3-104.2-39.4 1.2c-23.4 0.6-41.6 24.5-40.8 53.3z"/>
							</g>
							<g id="&lt;Group&gt;" style="opacity: .7">
								<path id="&lt;Path&gt;" class="s4" d="m1885.4 2819.5c7.4-10.4 18.3-17.2 30.6-17.5l39.4-1.2 2.5 86.9 8.6-0.2-3-104.2-39.4 1.2c-18.2 0.5-33.3 15.1-38.7 35z"/>
							</g>
							<g id="&lt;Group&gt;">
								<path id="&lt;Path&gt;" class="s5" d="m1883.3 2837.8c0.8 28.7 20.4 51.5 43.8 50.8l39.4-1.1-3-104.2-21.2 0.6 1.5 51.1-39.5 1.1c-7.5 0.3-14.6-2-20.8-6q-0.3 3.7-0.2 7.7z"/>
							</g>
							<g id="&lt;Group&gt;">
								<path id="&lt;Compound Path&gt;" class="s1" d="m1926.1 2899.1c-28.5 0-52.3-27.1-53.2-61-1-34.5 21.8-63.2 50.9-64.1l39.4-1.1c5.8-0.2 10.6 4.4 10.8 10.1l3 104.2c0.1 5.7-4.4 10.5-10.2 10.7l-39.4 1.1q-0.7 0.1-1.3 0.1zm-32.4-61.6c0.7 22.9 15.4 41.1 33.1 40.7l29-0.9-2.4-83.2-29 0.8c-17.6 0.5-31.3 19.6-30.7 42.6z"/>
							</g>
							<g id="&lt;Group&gt;">
								<path id="&lt;Path&gt;" class="s3" d="m1922.8 2836.6c0.8 28.8 20.4 51.6 43.7 50.9 23.4-0.7 41.6-24.5 40.8-53.3-0.9-28.7-20.4-51.5-43.8-50.9-23.3 0.7-41.5 24.6-40.7 53.3z"/>
							</g>
							<g id="&lt;Group&gt;" style="opacity: .7">
								<path id="&lt;Path&gt;" class="s4" d="m1922.8 2836.6q0.1 4.7 0.9 9.2c2.8-24.4 19.6-43.4 40.4-44 20.8-0.6 38.5 17.4 42.8 41.6q0.5-4.5 0.4-9.2c-0.9-28.7-20.4-51.5-43.8-50.8-23.3 0.6-41.5 24.5-40.7 53.2z"/>
							</g>
							<g id="&lt;Group&gt;">
								<path id="&lt;Path&gt;" class="s5" d="m1922.8 2836.6c0.8 28.8 20.4 51.6 43.7 50.9 23.3-0.7 41.6-24.5 40.8-53.3q-0.1-2.6-0.4-5.1c-6.5 17.1-20.4 29.1-36.8 29.5-22 0.7-40.6-19.4-43.4-45.6-2.7 7.1-4.2 15.2-3.9 23.6z"/>
							</g>
							<g id="&lt;Group&gt;">
								<path id="&lt;Compound Path&gt;" class="s1" d="m1965.5 2897.9c-28.4 0-52.2-27-53.1-61-1-34.4 21.8-63.2 50.8-64 14.6-0.5 28.2 6 38.6 18 9.8 11.5 15.4 26.7 15.9 43 0.5 16.3-4.3 31.9-13.5 43.8-9.6 12.6-22.9 19.8-37.4 20.2q-0.6 0-1.3 0zm-32.3-61.6c0.7 23 15.6 41.1 33 40.8 8.1-0.3 15.7-4.5 21.5-12.1 6.2-8.1 9.5-19 9.1-30.5-0.3-11.5-4.2-22.2-10.9-29.9-6.1-7.2-14-11-22.1-10.8-17.5 0.5-31.2 19.6-30.6 42.5z"/>
							</g>
						</g>
						<g id="&lt;Group&gt;">
							<g id="&lt;Group&gt;">
								<path id="&lt;Path&gt;" class="s0" d="m1994.4 3076.4c0 203.4-105.4 243.9-292.2 243.9l-108.4-177.1-194.1-317.2c0 0 198.6-43.7 312.1 43.8 0 0 46.2-49.5 117.5-54.7 74.2-5.5 155.3 50.9 164.3 228.1v0.1c0.5 10.6 0.8 21.6 0.8 33.1z"/>
							</g>
							<g id="&lt;Group&gt;" style="opacity: .2">
								<path id="&lt;Path&gt;" class="s6" d="m1994.4 3076.4c0 203.4-105.4 243.9-292.2 243.9l-108.4-177.1c92-4.6 164-19 164-19 0 0 38.4 82.9 118.3 82.9 77.4 0 108.2-74.7 117.5-163.8 0.5 10.6 0.8 21.6 0.8 33.1z"/>
							</g>
							<g id="&lt;Group&gt;">
								<path id="&lt;Path&gt;" class="s2" d="m1994.4 3076.4c0 114.1-53 206.6-118.3 206.6-65.4 0-118.3-92.5-118.3-206.6 0-114.1 52.9-206.6 118.3-206.6 65.3 0 118.3 92.5 118.3 206.6z"/>
							</g>
							<g id="&lt;Group&gt;">
								<path id="&lt;Compound Path&gt;" class="s1" d="m1876.1 3303.7c-77.9 0-139-99.9-139-227.3 0-127.5 61.1-227.3 139-227.3 77.9 0 138.9 99.8 138.9 227.3 0 127.4-61 227.3-138.9 227.3zm0-413.3c-52.9 0-97.7 85.2-97.7 186 0 100.8 44.8 185.9 97.7 185.9 52.9 0 97.6-85.1 97.6-185.9 0-100.8-44.7-186-97.6-186z"/>
							</g>
							<g id="&lt;Group&gt;">
								<path id="&lt;Path&gt;" class="s1" d="m1702.2 3340.9c-11.4 0-20.7-9.2-20.7-20.6 0-11.4 9.3-20.7 20.7-20.7 180.1 0 271.5-34.5 271.5-223.2 0-127.1-34.4-185.7-63.3-212.5-28.1-26.1-58.8-29.8-79.5-28.2-62 4.5-103.7 47.8-104.1 48.2-7.3 7.7-19.3 8.7-27.7 2.2-104.3-80.5-293.1-40.3-295-39.9-11.2 2.4-22.2-4.6-24.6-15.8-2.5-11.1 4.6-22.1 15.7-24.6 8.2-1.7 194.2-41.5 314.9 37.5 20.2-16.7 61.9-44.7 117.7-48.8 41.6-3.1 79.9 10.5 110.8 39.1 34.8 32.4 76.4 100.9 76.4 242.8 0 220.3-119.7 264.5-312.8 264.5z"/>
							</g>
							<g id="&lt;Group&gt;">
								<path id="&lt;Path&gt;" class="s1" d="m1826.8 3027.8c-23.3 0-44.7 0-62.3-0.1-11.4-0.1-20.6-9.4-20.5-20.8 0-11.3 9.3-20.5 20.6-20.5q0.1 0 0.1 0c56.1 0.3 152.1 0 222.7-0.3q0 0 0.1 0c11.3 0 20.6 9.2 20.6 20.6 0.1 11.4-9.2 20.7-20.6 20.7-48.6 0.2-109.2 0.4-160.7 0.4z"/>
							</g>
							<g id="&lt;Group&gt;">
								<path id="&lt;Path&gt;" class="s1" d="m1820.8 3173.1c-20.2 0-39 0-54.9-0.1-11.4-0.1-20.6-9.4-20.5-20.8 0-11.3 9.3-20.5 20.6-20.5q0.1 0 0.1 0c60.4 0.3 163.7-0.1 220-0.3l0.1 41.3c-41.5 0.2-108.7 0.4-165.4 0.4z"/>
							</g>
							<g id="&lt;Group&gt;">
								<path id="&lt;Path&gt;" class="s1" d="m1724.4 2886.1c0 0.2-0.9 1.1-1.4 1.7l-1.9 2.2c-1.3 1.4-2.6 3.1-3.9 4.6-2.7 3.1-5.3 6.4-8 9.6-5.2 6.5-10.5 13.2-15.5 20.2-10 13.8-19.8 28.2-28.7 43.4-3.9 7.9-8.7 15.5-12.4 23.6-1.8 4.1-4 8-5.9 12.1l-5.4 12.5c-3.9 8.2-6.6 16.9-10.3 25.4-3.2 8.7-6.2 17.5-9.7 26.3v0.2c-0.6 1.5-2.4 2.3-3.9 1.7-1.2-0.5-1.9-1.5-1.9-2.7-0.4-9.4-0.8-19.1-0.4-28.7q0.3-7.1 0.9-14.3c0.4-4.8 0.8-9.7 1.6-14.4l2.2-14.4c0.8-4.8 2.1-9.5 3.2-14.2 2-9.6 5-18.9 8-28.3 6.7-18.5 14.7-36.8 25.7-53.7q4-6.3 8.7-12.3c1.6-2 3-4 4.7-6l5-5.7c3.3-3.9 7-7.5 10.8-11 2-1.8 3.9-3.5 6-5.2 1.1-0.8 2.1-1.6 3.3-2.5 1.2-0.9 2.1-1.5 3.9-2.7 8.5-5.8 20.2-3.6 26 5 3.1 4.6 3.9 10.2 2.6 15.2z"/>
							</g>
						</g>
						<g id="&lt;Group&gt;">
							<g id="&lt;Group&gt;">
								<path id="&lt;Path&gt;" class="s4" d="m2347.6 2048c-58.6 108.9-145.1 203.7-255 273.1-22.4 14.1-45.7 27.2-69.9 39.1-11.8 5.8-23.9 11.3-36.2 16.6-37.1 15.9-74.8 28.5-112.8 38.1-32.8 8.3-65.8 14.2-98.8 18-39.8 4.6-79.6 5.9-119 4.1q-21.6-1-43-3.1c-261.1-26.7-501.1-187.8-613.9-442.3-166.3-374.8 6.3-810 385.3-972.1 73.1-31.1 148.5-50 223.8-57.3 8.8-0.9 17.6-1.6 26.5-2.1q35.5-2.2 70.8-1.1c54.3 1.7 108.1 9.4 160.2 22.5 52.2 13 102.8 31.5 150.9 55.1q23 11.3 45.2 24.1c22.2 12.8 43.7 26.7 64.6 41.8 104.1 75 190.2 177.4 245.5 302.3 95.7 215.6 79.2 451.1-24.2 643.2z"/>
								<path id="&lt;Compound Path&gt;" class="s1" d="m1689.3 2439.6q-16.8 0-33.5-0.7c-14.4-0.7-28.9-1.8-43.1-3.2-270.6-27.6-506.4-197.5-615.4-443.3-80.3-181-84.8-381.8-12.6-565.3 72.7-185 214.4-330.4 398.9-409.3 72-30.7 147.5-50 224.3-57.4 8.4-0.9 17.1-1.6 26.6-2.1 23.6-1.5 47.4-1.9 70.9-1.1 54 1.7 108 9.3 160.7 22.5 52.1 13 103 31.6 151.3 55.3 15.5 7.6 30.7 15.7 45.2 24.1 22.7 13.1 44.5 27.2 64.8 41.9 107.4 77.4 192.5 182.2 246.1 303 92.7 208.9 83.9 444-24.2 644.9-60 111.4-148.4 206-255.7 273.7-22.7 14.4-46.3 27.5-70.1 39.2-10.9 5.4-22.8 10.9-36.3 16.7-36.6 15.7-74.7 28.5-113.1 38.2-32.1 8.1-65.4 14.2-98.9 18-28.3 3.3-57.1 4.9-85.9 4.9zm-7.5-1479.1c-15.7 0-31.5 0.5-47.1 1.5-9.4 0.5-18.1 1.2-26.4 2.1-76.5 7.3-151.6 26.5-223.2 57.1-183.6 78.5-324.6 223.1-397 407.2-71.8 182.6-67.3 382.4 12.6 562.5 108.5 244.6 343.1 413.6 612.4 441.1 14.1 1.5 28.6 2.5 42.8 3.2 39.8 1.7 79.8 0.4 118.8-4.1 33.4-3.8 66.5-9.9 98.5-18 38.2-9.6 76.1-22.4 112.6-37.9 13.4-5.9 25.2-11.3 36-16.7 23.8-11.6 47.2-24.7 69.8-39 106.8-67.4 194.8-161.5 254.4-272.4 107.6-199.9 116.4-433.7 24.1-641.6-53.3-120.2-138-224.5-244.9-301.5-20.2-14.7-41.9-28.7-64.4-41.7-14.5-8.4-29.6-16.5-45.1-24-48-23.6-98.6-42.1-150.5-55.1-52.4-13.1-106.2-20.6-159.9-22.4q-11.7-0.3-23.5-0.3z"/>
							</g>
							<g id="&lt;Group&gt;" style="opacity: .1">
								<path id="&lt;Path&gt;" class="s1" d="m999 1991.6c112.8 254.5 352.8 415.6 613.9 442.3q21.4 2.1 42.9 3.1c39.5 1.8 79.3 0.5 119.1-4.1 33-3.8 66-9.7 98.8-18 38-9.5 75.7-22.2 112.8-38 12.3-5.4 24.4-10.9 36.2-16.7 24.2-11.9 47.5-25 69.9-39.1 109.9-69.4 196.4-164.1 255.1-273.1 32.2-59.9 56-124 70.5-190.3-58.3 102.6-141.9 191.9-246.7 258.1q-33.6 21.3-70 39.1c-11.7 5.8-23.8 11.3-36.1 16.7-37.2 15.8-74.9 28.5-112.9 38-32.7 8.3-65.7 14.3-98.7 18.1-39.8 4.5-79.6 5.8-119.1 4.1q-21.6-1-43-3.2c-261.1-26.6-501-187.8-613.8-442.3-65.9-148.4-78.6-306.3-46.3-453-110.8 194.8-130.8 437.1-32.6 658.3z"/>
							</g>
							<g id="&lt;Group&gt;">
								<path id="&lt;Compound Path&gt;" class="s1" d="m1689.3 2452q-17 0-34.1-0.8c-14.6-0.6-29.3-1.7-43.7-3.2-275-28.1-514.7-200.7-625.5-450.6-81.6-184.1-86.2-388.2-12.8-574.9 73.9-188.1 218-335.8 405.6-416 73.1-31.3 149.8-50.9 227.9-58.4 8.5-0.9 17.4-1.6 27.1-2.2 23.9-1.5 48.1-1.9 72-1.1 54.9 1.8 109.8 9.5 163.3 22.9 53 13.2 104.7 32.1 153.7 56.2 15.8 7.7 31.2 15.9 46 24.5 23 13.3 45.2 27.6 65.9 42.6 109.1 78.6 195.7 185.2 250.1 308 94.3 212.4 85.3 451.4-24.6 655.7-61 113.3-150.9 209.6-260 278.4-23.1 14.6-47.1 27.9-71.3 39.8-11 5.5-23 11-36.8 17-37.3 15.9-76 29-115 38.8-32.6 8.2-66.5 14.4-100.5 18.3-28.8 3.3-58 5-87.3 5zm-7.5-1479.2c-15.4 0-30.9 0.5-46.3 1.5-9.3 0.5-17.8 1.2-25.9 2-75.4 7.3-149.2 26.2-219.7 56.3-180.5 77.2-319.1 219.4-390.3 400.3-70.5 179.5-66.2 375.9 12.4 552.9 106.7 240.6 337.5 406.9 602.3 433.9 13.9 1.4 28.2 2.5 42.2 3.2 39.1 1.7 78.4 0.3 116.8-4.1 32.8-3.8 65.4-9.7 96.9-17.7 37.6-9.4 74.8-22 110.7-37.3 13.2-5.7 24.8-11.1 35.5-16.4 23.3-11.4 46.4-24.3 68.6-38.3 105-66.3 191.5-158.9 250.1-267.8 105.8-196.5 114.4-426.4 23.7-630.8-52.4-118.2-135.7-220.7-240.8-296.5-19.9-14.4-41.2-28.2-63.4-41-14.2-8.2-29.1-16.2-44.3-23.6-47.2-23.2-97.1-41.4-148.1-54.2-51.6-12.9-104.5-20.3-157.3-22q-11.5-0.4-23.1-0.4zm665.8 1075.2h0.1z"/>
							</g>
							<g id="&lt;Group&gt;">
								<path id="&lt;Compound Path&gt;" class="s1" d="m1689.3 2463.2q-17.3 0-34.6-0.8c-14.8-0.7-29.7-1.8-44.4-3.3-279-28.5-522.1-203.7-634.5-457.2-82.9-186.8-87.5-394-13-583.5 75-190.9 221.2-340.8 411.6-422.2 74.2-31.7 152-51.6 231.2-59.3 8.6-0.9 17.7-1.6 27.6-2.1 24.1-1.6 48.7-1.9 73-1.2 55.6 1.8 111.3 9.6 165.6 23.2 53.7 13.4 106.2 32.6 155.9 57 16 7.8 31.7 16.2 46.7 24.9 23.4 13.5 45.8 28 66.8 43.2 110.8 79.8 198.6 187.9 253.8 312.6 95.7 215.6 86.6 458.2-25 665.5-61.8 115-153.1 212.7-263.8 282.6-23.5 14.7-47.8 28.3-72.4 40.4-11.1 5.5-23.3 11.1-37.2 17.1-37.9 16.3-77.2 29.5-116.7 39.4-33.2 8.4-67.5 14.7-102.1 18.6-29.1 3.4-58.8 5.1-88.5 5.1zm-7.5-1479.2c-15.2 0-30.5 0.5-45.6 1.5-9.2 0.5-17.5 1.1-25.5 2-74.2 7.1-147 25.8-216.4 55.4-177.7 76-314.2 216-384.3 394.1-69.4 176.7-65.1 370 12.2 544.3 105.1 236.9 332.4 400.7 593.2 427.3 13.8 1.4 27.8 2.4 41.7 3.1 38.4 1.7 77.1 0.3 114.9-4 32.4-3.7 64.4-9.6 95.4-17.4 37.1-9.3 73.8-21.7 109.1-36.8 13-5.6 24.4-10.9 34.9-16.1 23-11.3 45.8-24 67.7-37.8 103.3-65.2 188.5-156.4 246.2-263.6 104.1-193.5 112.6-419.8 23.3-620.9-51.6-116.5-133.6-217.4-237.1-292-19.7-14.2-40.7-27.8-62.5-40.4-14-8.1-28.7-16-43.6-23.3-46.6-22.8-95.6-40.8-145.9-53.3-50.8-12.7-102.9-20-155-21.7q-11.3-0.4-22.7-0.4zm665.8 1064h0.1z"/>
							</g>
							<g id="&lt;Group&gt;">
								<path id="&lt;Path&gt;" class="s1" d="m2236.8 2202.1c-436.2 304.6-1035.6 91.4-1072.2-430.9-24.9-355.3 308.4-651.9 655.8-651.9 252.9 0 500.3 109.1 609.6 496.3 0 0 21.6 178.6-26.4 297.7-47.9 119.2-114.9 227-114.9 227z"/>
							</g>
							<g id="&lt;Group&gt;">
								<path id="&lt;Path&gt;" class="s7" d="m1164.6 1771.2c36.6 522.3 636 735.5 1072.2 431l10.5-12.6c-482.3 87.2-966.6-196.1-1013.5-723.5-50.5 91.4-76.9 195.5-69.2 305.1z"/>
							</g>
							<g id="&lt;Clip Group&gt;" style="opacity: .7">
								<g id="&lt;Group&gt;" clip-path="url(#cp1)">
								</g>
								<g id="&lt;Group&gt;">
									<g id="&lt;Group&gt;">
										<path id="&lt;Path&gt;" class="s4" d="m1816.4 1909.5c0 3.6-2.9 6.6-6.6 6.6-3.6 0-6.5-3-6.5-6.6 0-3.7 2.9-6.6 6.5-6.6 3.7 0 6.6 2.9 6.6 6.6z"/>
									</g>
									<g id="&lt;Group&gt;">
										<path id="&lt;Path&gt;" class="s4" d="m1390.6 1654.8c0 3.6-3 6.6-6.6 6.6-3.7 0-6.6-3-6.6-6.6 0-3.7 2.9-6.6 6.6-6.6 3.6 0 6.6 2.9 6.6 6.6z"/>
									</g>
									<g id="&lt;Group&gt;">
										<path id="&lt;Path&gt;" class="s4" d="m2096.6 2183.3c0 3.7-3 6.6-6.6 6.6-3.7 0-6.6-2.9-6.6-6.6 0-3.6 2.9-6.6 6.6-6.6 3.6 0 6.6 3 6.6 6.6z"/>
									</g>
									<g id="&lt;Group&gt;">
										<path id="&lt;Path&gt;" class="s4" d="m1799.1 2275c0 3.7-3 6.6-6.6 6.6-3.6 0-6.6-2.9-6.6-6.6 0-3.6 3-6.5 6.6-6.5 3.6 0 6.6 2.9 6.6 6.5z"/>
									</g>
									<g id="&lt;Group&gt;">
										<path id="&lt;Path&gt;" class="s4" d="m1781.5 2540.4c0 3.6-2.9 6.5-6.6 6.5-3.6 0-6.6-2.9-6.6-6.5 0-3.7 3-6.6 6.6-6.6 3.7 0 6.6 2.9 6.6 6.6z"/>
									</g>
									<g id="&lt;Group&gt;">
										<path id="&lt;Path&gt;" class="s4" d="m1960 2037.7c0 6.3-5 11.3-11.3 11.3-6.3 0-11.4-5-11.4-11.3 0-6.3 5.1-11.3 11.4-11.3 6.3 0 11.3 5 11.3 11.3z"/>
									</g>
									<g id="&lt;Group&gt;">
										<path id="&lt;Path&gt;" class="s8" d="m1573.2 2189.9c0 6.3-5.1 11.3-11.3 11.3-6.3 0-11.4-5-11.4-11.3 0-6.3 5.1-11.3 11.4-11.3 6.2 0 11.3 5 11.3 11.3z"/>
									</g>
									<g id="&lt;Group&gt;">
										<path id="&lt;Path&gt;" class="s4" d="m1628.7 1967.2c0 8.9-7.2 16.1-16.1 16.1-8.8 0-16-7.2-16-16.1 0-8.8 7.2-16 16-16 8.9 0 16.1 7.2 16.1 16z"/>
									</g>
									<g id="&lt;Group&gt;">
										<path id="&lt;Path&gt;" class="s8" d="m1698.5 1704c0 7.4-6 13.3-13.4 13.3-7.3 0-13.3-5.9-13.3-13.3 0-7.3 6-13.3 13.3-13.3 7.4 0 13.4 6 13.4 13.3z"/>
									</g>
									<g id="&lt;Group&gt;">
										<path id="&lt;Path&gt;" class="s4" d="m2316.7 2055.6c0 3.7-2.9 6.6-6.6 6.6-3.6 0-6.5-2.9-6.5-6.6 0-3.6 2.9-6.6 6.5-6.6 3.7 0 6.6 3 6.6 6.6z"/>
									</g>
									<g id="&lt;Group&gt;">
										<path id="&lt;Path&gt;" class="s8" d="m2219.3 2288.2c0 3.6-2.9 6.6-6.5 6.6-3.7 0-6.6-3-6.6-6.6 0-3.6 2.9-6.6 6.6-6.6 3.6 0 6.5 3 6.5 6.6z"/>
									</g>
									<g id="&lt;Group&gt;">
										<path id="&lt;Path&gt;" class="s4" d="m1450.6 2183.3c0 3.7-3 6.6-6.6 6.6-3.7 0-6.6-2.9-6.6-6.6 0-3.6 2.9-6.6 6.6-6.6 3.6 0 6.6 3 6.6 6.6z"/>
									</g>
									<g id="&lt;Group&gt;">
										<path id="&lt;Path&gt;" class="s4" d="m1900 2445.9c0 5.9-4.7 10.7-10.6 10.7-5.9 0-10.7-4.8-10.7-10.7 0-5.9 4.8-10.7 10.7-10.7 5.9 0 10.6 4.8 10.6 10.7z"/>
									</g>
									<g id="&lt;Group&gt;">
										<path id="&lt;Path&gt;" class="s4" d="m1309.1 2406.7c0 3.6-3 6.6-6.6 6.6-3.6 0-6.6-3-6.6-6.6 0-3.6 3-6.6 6.6-6.6 3.6 0 6.6 3 6.6 6.6z"/>
									</g>
									<g id="&lt;Group&gt;">
										<path id="&lt;Path&gt;" class="s4" d="m1384 1916.1c0 3.6-3 6.5-6.6 6.5-3.6 0-6.6-2.9-6.6-6.5 0-3.7 3-6.6 6.6-6.6 3.6 0 6.6 2.9 6.6 6.6z"/>
									</g>
									<g id="&lt;Group&gt;">
										<path id="&lt;Path&gt;" class="s4" d="m2413.4 2333.9c0 3.7-2.9 6.6-6.5 6.6-3.7 0-6.6-2.9-6.6-6.6 0-3.6 2.9-6.6 6.6-6.6 3.6 0 6.5 3 6.5 6.6z"/>
									</g>
									<g id="&lt;Group&gt;">
										<path id="&lt;Path&gt;" class="s4" d="m2169.8 2540.4c0 3.6-2.9 6.5-6.6 6.5-3.6 0-6.5-2.9-6.5-6.5 0-3.7 2.9-6.6 6.5-6.6 3.7 0 6.6 2.9 6.6 6.6z"/>
									</g>
									<g id="&lt;Group&gt;">
										<g id="&lt;Group&gt;">
											<path id="&lt;Path&gt;" class="s9" d="m2198.3 1874.4c2.3 5.9 3.5 11.7 4.3 17.6q1.2 8.7 1.2 17.5 0.1 8.7-1.1 17.5c-0.9 5.9-2.1 11.7-4.4 17.5-2.3-5.8-3.5-11.6-4.3-17.5q-1.2-8.8-1.2-17.5 0-8.8 1.2-17.5c0.8-5.9 2-11.7 4.3-17.6z"/>
										</g>
										<g id="&lt;Group&gt;">
											<path id="&lt;Path&gt;" class="s9" d="m2233.4 1909.5c-5.9 2.3-11.7 3.5-17.6 4.3q-8.7 1.2-17.5 1.2-8.8 0-17.5-1.2c-5.9-0.8-11.7-2-17.6-4.3 5.9-2.3 11.7-3.5 17.6-4.4q8.7-1.2 17.5-1.1 8.8-0.1 17.5 1.1c5.9 0.9 11.7 2.1 17.6 4.4z"/>
										</g>
									</g>
									<g id="&lt;Group&gt;">
										<g id="&lt;Group&gt;">
											<path id="&lt;Path&gt;" class="s9" d="m2316.7 2470.2c2.3 5.9 3.5 11.7 4.3 17.6q1.3 8.7 1.2 17.5 0.1 8.8-1.1 17.5c-0.9 5.9-2.1 11.7-4.4 17.6-2.3-5.9-3.5-11.7-4.3-17.6q-1.2-8.7-1.2-17.5 0-8.8 1.2-17.5c0.8-5.9 2-11.7 4.3-17.6z"/>
										</g>
										<g id="&lt;Group&gt;">
											<path id="&lt;Path&gt;" class="s9" d="m2351.8 2505.3c-5.9 2.3-11.7 3.5-17.6 4.3q-8.7 1.2-17.5 1.2-8.7 0.1-17.5-1.2c-5.9-0.8-11.7-2-17.5-4.3 5.8-2.3 11.6-3.5 17.5-4.4q8.8-1.2 17.5-1.1 8.8 0 17.5 1.2c5.9 0.8 11.7 2 17.6 4.3z"/>
										</g>
									</g>
									<g id="&lt;Group&gt;">
										<g id="&lt;Group&gt;">
											<path id="&lt;Path&gt;" class="s9" d="m1479 2400.1c2.3 5.9 3.5 11.7 4.4 17.5q1.2 8.8 1.2 17.6 0 8.7-1.2 17.5c-0.9 5.9-2.1 11.7-4.4 17.5-2.3-5.8-3.5-11.6-4.3-17.5q-1.2-8.8-1.2-17.5 0-8.8 1.2-17.6c0.9-5.8 2-11.6 4.3-17.5z"/>
										</g>
										<g id="&lt;Group&gt;">
											<path id="&lt;Path&gt;" class="s9" d="m1514.1 2435.2c-5.9 2.3-11.7 3.5-17.5 4.3q-8.8 1.2-17.6 1.2-8.7 0-17.5-1.2c-5.8-0.8-11.7-2-17.5-4.3 5.8-2.3 11.7-3.5 17.5-4.4q8.8-1.2 17.5-1.2 8.8 0 17.6 1.2c5.8 0.9 11.6 2.1 17.5 4.4z"/>
										</g>
									</g>
								</g>
								<g id="&lt;Group&gt;">
									<g id="&lt;Group&gt;">
										<path id="&lt;Path&gt;" class="s4" d="m1650.2 1070.1c0 3.7-3 6.6-6.6 6.6-3.6 0-6.6-2.9-6.6-6.6 0-3.6 3-6.5 6.6-6.5 3.6 0 6.6 2.9 6.6 6.5z"/>
									</g>
									<g id="&lt;Group&gt;">
									</g>
									<g id="&lt;Group&gt;">
										<path id="&lt;Path&gt;" class="s4" d="m1930.3 1344c0 3.6-3 6.6-6.6 6.6-3.6 0-6.6-3-6.6-6.6 0-3.7 3-6.6 6.6-6.6 3.6 0 6.6 2.9 6.6 6.6z"/>
									</g>
									<g id="&lt;Group&gt;">
										<path id="&lt;Path&gt;" class="s4" d="m1632.8 1435.7c0 3.6-2.9 6.6-6.6 6.6-3.6 0-6.6-3-6.6-6.6 0-3.6 3-6.6 6.6-6.6 3.7 0 6.6 3 6.6 6.6z"/>
									</g>
									<g id="&lt;Group&gt;">
										<path id="&lt;Path&gt;" class="s4" d="m1615.2 1701c0 3.6-2.9 6.6-6.5 6.6-3.7 0-6.6-3-6.6-6.6 0-3.6 2.9-6.6 6.6-6.6 3.6 0 6.5 3 6.5 6.6z"/>
									</g>
									<g id="&lt;Group&gt;">
										<path id="&lt;Path&gt;" class="s4" d="m1793.8 1198.4c0 6.2-5.1 11.3-11.4 11.3-6.2 0-11.3-5.1-11.3-11.3 0-6.3 5.1-11.4 11.3-11.4 6.3 0 11.4 5.1 11.4 11.4z"/>
									</g>
									<g id="&lt;Group&gt;">
										<path id="&lt;Path&gt;" class="s8" d="m1406.9 1350.6c0 6.2-5 11.3-11.3 11.3-6.3 0-11.3-5.1-11.3-11.3 0-6.3 5-11.4 11.3-11.4 6.3 0 11.3 5.1 11.3 11.4z"/>
									</g>
									<g id="&lt;Group&gt;">
										<path id="&lt;Path&gt;" class="s4" d="m1462.4 1127.9c0 8.8-7.2 16-16 16-8.9 0-16.1-7.2-16.1-16 0-8.9 7.2-16.1 16.1-16.1 8.8 0 16 7.2 16 16.1z"/>
									</g>
									<g id="&lt;Group&gt;">
									</g>
									<g id="&lt;Group&gt;">
										<path id="&lt;Path&gt;" class="s4" d="m2150.5 1216.3c0 3.6-3 6.6-6.6 6.6-3.7 0-6.6-3-6.6-6.6 0-3.6 2.9-6.6 6.6-6.6 3.6 0 6.6 3 6.6 6.6z"/>
									</g>
									<g id="&lt;Group&gt;">
										<path id="&lt;Path&gt;" class="s8" d="m2053.1 1447.9c0 3.6-3 6.5-6.6 6.5-3.6 0-6.6-2.9-6.6-6.5 0-3.7 3-6.6 6.6-6.6 3.6 0 6.6 2.9 6.6 6.6z"/>
									</g>
									<g id="&lt;Group&gt;">
										<path id="&lt;Path&gt;" class="s4" d="m1284.3 1344c0 3.6-3 6.6-6.6 6.6-3.6 0-6.6-3-6.6-6.6 0-3.7 3-6.6 6.6-6.6 3.6 0 6.6 2.9 6.6 6.6z"/>
									</g>
									<g id="&lt;Group&gt;">
										<path id="&lt;Path&gt;" class="s4" d="m1733.8 1606.5c0 5.9-4.8 10.7-10.7 10.7-5.9 0-10.7-4.8-10.7-10.7 0-5.9 4.8-10.7 10.7-10.7 5.9 0 10.7 4.8 10.7 10.7z"/>
									</g>
									<g id="&lt;Group&gt;">
										<path id="&lt;Path&gt;" class="s4" d="m1142.8 1567.4c0 3.6-2.9 6.5-6.6 6.5-3.6 0-6.6-2.9-6.6-6.5 0-3.7 3-6.6 6.6-6.6 3.7 0 6.6 2.9 6.6 6.6z"/>
									</g>
									<g id="&lt;Group&gt;">
										<path id="&lt;Path&gt;" class="s4" d="m2247.2 1494.6c0 3.6-3 6.6-6.6 6.6-3.6 0-6.6-3-6.6-6.6 0-3.6 3-6.6 6.6-6.6 3.6 0 6.6 3 6.6 6.6z"/>
									</g>
									<g id="&lt;Group&gt;">
										<path id="&lt;Path&gt;" class="s4" d="m2003.6 1701c0 3.6-3 6.6-6.6 6.6-3.6 0-6.6-3-6.6-6.6 0-3.6 3-6.6 6.6-6.6 3.6 0 6.6 3 6.6 6.6z"/>
									</g>
									<g id="&lt;Group&gt;">
										<g id="&lt;Group&gt;">
											<path id="&lt;Path&gt;" class="s9" d="m2032 1035.1c2.3 5.8 3.5 11.7 4.4 17.5q1.2 8.8 1.2 17.5 0 8.8-1.2 17.6c-0.9 5.8-2 11.7-4.4 17.5-2.3-5.8-3.5-11.7-4.3-17.5q-1.2-8.8-1.2-17.6 0-8.7 1.2-17.5c0.9-5.8 2.1-11.7 4.3-17.5z"/>
										</g>
										<g id="&lt;Group&gt;">
											<path id="&lt;Path&gt;" class="s9" d="m2067.1 1070.1c-5.8 2.3-11.7 3.5-17.5 4.4q-8.8 1.2-17.6 1.2-8.7 0-17.5-1.2c-5.8-0.9-11.7-2.1-17.5-4.4 5.8-2.3 11.7-3.5 17.5-4.3q8.8-1.2 17.5-1.2 8.8 0 17.6 1.2c5.8 0.9 11.7 2 17.5 4.3z"/>
										</g>
									</g>
									<g id="&lt;Group&gt;">
										<g id="&lt;Group&gt;">
											<path id="&lt;Path&gt;" class="s9" d="m2150.5 1630.9c2.2 5.8 3.4 11.7 4.3 17.5q1.2 8.8 1.2 17.6 0 8.7-1.2 17.5c-0.8 5.8-2 11.7-4.3 17.5-2.4-5.8-3.5-11.7-4.4-17.5q-1.2-8.8-1.2-17.5 0-8.8 1.2-17.6c0.9-5.8 2.1-11.7 4.4-17.5z"/>
										</g>
										<g id="&lt;Group&gt;">
											<path id="&lt;Path&gt;" class="s9" d="m2185.5 1666c-5.8 2.2-11.7 3.4-17.5 4.3q-8.8 1.2-17.5 1.2-8.8 0-17.6-1.2c-5.8-0.8-11.7-2-17.5-4.3 5.8-2.3 11.7-3.5 17.5-4.4q8.8-1.2 17.6-1.2 8.7 0 17.5 1.2c5.8 0.9 11.7 2.1 17.5 4.4z"/>
										</g>
									</g>
									<g id="&lt;Group&gt;">
										<g id="&lt;Group&gt;">
											<path id="&lt;Path&gt;" class="s9" d="m1312.8 1560.8c2.3 5.8 3.4 11.7 4.3 17.5q1.2 8.8 1.2 17.5 0 8.8-1.2 17.6c-0.8 5.8-2 11.7-4.3 17.5-2.3-5.8-3.5-11.7-4.4-17.5q-1.2-8.8-1.2-17.6 0-8.7 1.2-17.5c0.9-5.8 2.1-11.7 4.4-17.5z"/>
										</g>
										<g id="&lt;Group&gt;">
											<path id="&lt;Path&gt;" class="s9" d="m1347.8 1595.8c-5.8 2.3-11.7 3.5-17.5 4.4q-8.8 1.2-17.5 1.2-8.8 0-17.6-1.2c-5.8-0.9-11.6-2.1-17.5-4.4 5.9-2.3 11.7-3.5 17.5-4.3q8.8-1.2 17.6-1.2 8.7 0 17.5 1.2c5.8 0.9 11.7 2 17.5 4.3z"/>
										</g>
									</g>
								</g>
								<g id="&lt;Group&gt;">
									<g id="&lt;Group&gt;">
										<g id="&lt;Group&gt;">
											<path id="&lt;Path&gt;" class="s10" d="m2127 1793.1q-0.8 7.8-2.6 15.5c-2.8 11.9-7.2 23.5-13.4 34.7-35.8 64.4-117 87.6-181.4 51.8-51.3-28.5-76.4-85.8-66.5-140.5 2.5-14 7.4-27.8 14.7-40.9 11.4-20.5 27.3-36.8 45.9-48.4q4.5-2.8 9.2-5.2c16.7-8.7 35.2-13.8 54.1-14.8q0.2 0 0.5 0 1.7-0.1 3.5-0.2 3.4-0.1 6.9 0c15.6 0.4 31.4 3.6 46.5 9.7q7.5 3.1 14.8 7.1 1.5 0.9 3.1 1.8 0.9 0.5 1.8 1.1c45.2 27.6 68.4 78.3 62.9 128.3z"/>
										</g>
										<g id="&lt;Group&gt;">
											<path id="&lt;Path&gt;" class="s10" d="m2127 1793.1q-0.8 7.8-2.6 15.5c-2.8 11.9-7.2 23.5-13.4 34.7-35.8 64.4-117 87.6-181.4 51.8-51.3-28.5-76.4-85.8-66.5-140.5 2.6-14 7.4-27.8 14.7-40.9 7.9-14.2 18-26.4 29.6-36.4q7.8-6.7 16.3-12 4.5-2.8 9.2-5.2c16.7-8.7 35.2-13.8 54.1-14.8q0.2 0 0.5 0 1.7-0.1 3.5-0.2 3.4-0.1 6.9 0c15.6 0.4 31.4 3.6 46.5 9.7q7.5 3.1 14.8 7.1 1.5 0.9 3.1 1.8 0.9 0.5 1.8 1.1c7.2 4.4 13.8 9.3 19.8 14.8 32 28.8 47.7 71.4 43.1 113.5z"/>
										</g>
										<g id="&lt;Group&gt;">
											<path id="&lt;Path&gt;" class="s11" d="m1941.2 1709.3c-2.7-5.5-3.8-11.2-4.2-15 3.9-0.4 7.4 1.2 8.9 4.3 1.8 3.7-0.3 8.3-4.7 10.7z"/>
										</g>
										<g id="&lt;Group&gt;">
											<path id="&lt;Path&gt;" class="s11" d="m1929.6 1895.1c64.4 35.8 145.6 12.6 181.4-51.8 6.2-11.2 10.6-22.8 13.4-34.7q1.8-7.7 2.6-15.5c1-9.3 1.1-18.6 0.2-27.7q-0.1 0.6-0.2 1.3-0.8 7.8-2.6 15.5c-2.8 11.8-7.2 23.5-13.4 34.7-35.8 64.4-117 87.6-181.4 51.8-39.7-22.1-63.8-61.5-68-103.5-5.1 51.4 20 103.2 68 129.9z"/>
										</g>
										<g id="&lt;Group&gt;">
											<path id="&lt;Path&gt;" class="s11" d="m2075.5 1793.1c-3.6 16.3 1.4 29.4 11.2 29.4 9.8 0 21.5-12.8 25.2-29.1 3.6-16.2-2.2-29.8-12-29.8-9.8 0.1-20.7 13.3-24.4 29.5z"/>
										</g>
										<g id="&lt;Group&gt;">
											<path id="&lt;Path&gt;" class="s1" d="m2068.3 1782.4c-3.6 8.3-4.1 17.2-2.4 25.7 0.8 4.2 2.4 8.3 4.6 11.9 2.3 3.6 5.3 6.7 9.5 8.2h0.1c0.5 0.2 0.7 0.7 0.5 1.2-0.1 0.4-0.4 0.6-0.8 0.6-5.2 0.1-10.1-3-13.4-6.9-3.3-4-5.4-8.8-6.6-13.7-1.1-4.9-1.2-10.1-0.1-15.1 1-4.9 3.2-9.7 6.7-13.2 0.4-0.5 1.2-0.5 1.6-0.1 0.4 0.4 0.5 0.9 0.3 1.3z"/>
										</g>
										<g id="&lt;Group&gt;">
											<path id="&lt;Path&gt;" class="s11" d="m1933.5 1687.5c-7.4 0.3-13.1 5.6-12.9 11.8 0.2 6.2 6.3 11.1 13.6 10.8 7.3-0.3 13.1-5.6 12.9-11.9-0.2-6.2-6.3-11-13.6-10.7z"/>
										</g>
										<g id="&lt;Group&gt;">
											<path id="&lt;Path&gt;" class="s10" d="m1933.3 1695.3c-5 2.2-7.6 7.2-5.7 11.2 1.9 4.1 7.6 5.5 12.6 3.3 5-2.2 7.6-7.2 5.7-11.2-1.9-4.1-7.6-5.5-12.6-3.3z"/>
										</g>
										<g id="&lt;Group&gt;">
											<path id="&lt;Path&gt;" class="s1" d="m1934.2 1711.7c-5.8 1.2-13.2-1.4-16.1-8.1-1.5-3.2-1.3-7.1 0.1-10.4 1.5-3.2 4.2-5.7 7.1-7.2 6-3.1 13.5-2.7 18.9 1.4 2.6 2 4.6 5.1 5.1 8.4 0.5 3.3-0.5 6.6-2.5 8.9-0.4 0.4-1 0.5-1.4 0.1-0.3-0.2-0.4-0.7-0.2-1.1 2.2-4.9-0.1-9.9-4-12.1-3.8-2.3-9.1-2.3-13-0.2-4 2.1-6.3 6.3-5 10.3 1.2 4 5.8 7.1 11 7.7 0.6 0.1 1 0.7 1 1.3-0.1 0.5-0.5 0.9-1 1z"/>
										</g>
										<g id="&lt;Group&gt;">
											<path id="&lt;Path&gt;" class="s1" d="m1951.4 1690.4c4.2 4.3 5.3 11.8 2.3 17.5-2.8 5.8-8.6 9.7-14.6 11-6 1.4-12.6 0.5-17.8-2.9-2.6-1.6-4.9-3.9-6.4-6.6-1.4-2.7-2.2-5.8-1.8-8.7 0.1-0.5 0.5-0.9 1-0.9 0.5 0.1 0.8 0.4 0.9 0.8 0.9 5.1 4.5 8.9 8.8 11 4.3 2 9.3 2.5 13.9 1.3 4.5-1.1 8.8-3.7 11.2-7.6 2.4-3.8 2.9-8.9 0.6-13.6-0.3-0.5 0-1.2 0.5-1.5 0.5-0.2 1-0.1 1.4 0.2z"/>
										</g>
										<g id="&lt;Group&gt;">
											<path id="&lt;Path&gt;" class="s1" d="m1898 1728.8c4 0.3 7.9 1.8 11.4 4 3.5 2.4 6.4 5.5 8.5 9.1 4.2 7.3 5 16.3 3.1 24.3-1.9 8-6.5 15.4-12.9 20.5-6.3 5.2-14.5 8.2-22.5 7.3-0.5 0-0.9-0.5-0.8-1 0-0.4 0.4-0.8 0.8-0.8 7.4-0.9 14.1-4.3 19.1-9.3 5.1-5 8.8-11.3 10.3-18.1 1.5-6.8 1-14.1-1.9-20.3-1.5-3.1-3.6-6-6.3-8.2-2.6-2.4-5.8-4.1-9.2-5.2-0.7-0.2-1-0.9-0.8-1.5 0.2-0.5 0.7-0.8 1.2-0.8z"/>
										</g>
										<g id="&lt;Group&gt;">
											<path id="&lt;Path&gt;" class="s11" d="m1870.7 1757.3c-2.5 12.5 3.8 24.3 14.1 26.5 10.3 2.2 20.7-6.1 23.2-18.6 2.5-12.5-3.9-24.3-14.2-26.5-10.3-2.2-20.6 6.2-23.1 18.6z"/>
										</g>
										<g id="&lt;Group&gt;">
											<path id="&lt;Path&gt;" class="s10" d="m1888.6 1780.9c6.8 0.1 13.7-4.5 17.3-12.3 4.7-10.3 1.6-22.3-6.8-26.8q-1.8-0.9-3.7-1.3c-5 2-9.4 6.2-12.1 12.2-4.8 10.5-2.4 22.5 5.3 28.2z"/>
										</g>
										<g id="&lt;Group&gt;">
											<path id="&lt;Path&gt;" class="s1" d="m1870.5 1752.7c1.7-4.2 4.7-8 8.5-10.7 3.9-2.7 8.7-4.2 13.7-3.8 1.3 0 2.5 0.4 3.7 0.8 1.2 0.4 2.4 0.6 3.5 1.3 2.2 1.2 4.3 2.8 5.9 4.8 3.1 4 4.6 9.1 4.5 14-0.2 9.8-6.3 19-15.2 22.9-4.4 1.8-9.5 2.4-14.1 0.9-4.5-1.5-8.4-4.9-10.2-9-0.2-0.5 0-1.1 0.4-1.3 0.5-0.2 0.9 0 1.2 0.3 4.8 6.9 14 8.3 20.6 4.5 6.6-3.6 11.1-11 11.1-18.4 0-3.7-1-7.3-3.1-10.1-1.1-1.4-2.4-2.6-3.9-3.5-0.8-0.5-1.6-0.7-2.5-1-0.8-0.3-1.6-0.7-2.5-0.8-7.3-1.2-15.1 3.3-19.5 10.1-0.4 0.6-1.1 0.7-1.6 0.4-0.5-0.3-0.7-0.9-0.5-1.4z"/>
										</g>
										<g id="&lt;Group&gt;">
											<path id="&lt;Path&gt;" class="s1" d="m2047.5 1755c2 10.4-0.8 21.7-7.5 30.3-6.7 8.7-17.3 14.1-28.1 15-10.9 1.1-22-2.2-30.6-8.6-4.3-3.2-8-7.1-11-11.5-2.8-4.5-5-9.4-6-14.5-0.1-0.5 0.2-1 0.7-1.1 0.5 0 0.9 0.2 1.1 0.6 3.5 9.3 10 17.2 18.1 22.4 8.1 5 17.7 7.6 27.1 6.6 9.3-0.9 18.3-5.3 24.5-12.4 3.2-3.5 5.6-7.6 7.1-12.2 1.7-4.5 2.4-9.4 2.3-14.3 0-0.6 0.5-1.2 1.1-1.2 0.6 0 1.1 0.4 1.2 0.9z"/>
										</g>
										<g id="&lt;Group&gt;">
											<path id="&lt;Path&gt;" class="s11" d="m2002.9 1730.3c-16.1 1.9-28 15.4-26.7 30.2 1.2 14.7 15.3 25.2 31.3 23.3 16.1-2 28.1-15.5 26.8-30.2-1.3-14.8-15.4-25.2-31.4-23.3z"/>
										</g>
										<g id="&lt;Group&gt;">
											<path id="&lt;Path&gt;" class="s10" d="m1981.2 1764.4c2.4 9.2 10.7 16.5 21.4 17.9 14.3 2 27.7-7.1 29.9-20.3q0.5-2.8 0.3-5.5c-4.4-5.9-11.3-10.1-19.5-11.2-14.5-2-28.2 6.4-32.1 19.1z"/>
										</g>
										<g id="&lt;Group&gt;">
											<path id="&lt;Path&gt;" class="s1" d="m2008.4 1728.7c6 0.6 11.8 3.4 16.4 7.5 4.5 4.2 7.8 9.9 9 16.1 1.3 6.3 0.1 13-3.1 18.6-3.3 5.6-8.6 10.1-14.8 12.1-12.3 4.1-26.6-0.8-33.9-11.1-3.7-5.1-5.8-11.3-5.7-17.5 0.2-6.2 2.5-12.3 6.7-16.7 0.4-0.3 0.9-0.3 1.3 0 0.4 0.3 0.4 0.9 0.1 1.2-6.5 9.2-5.3 21.9 1.6 29.9 3.4 4 7.9 7.1 12.8 8.6 5 1.5 10.4 1.4 15.1-0.3 4.8-1.6 9-4.9 11.7-9.2 2.6-4.3 3.5-9.6 2.8-14.7-1.3-10.3-9.7-19.5-20.4-22.3-0.6-0.1-1-0.8-0.9-1.4 0.2-0.5 0.7-0.9 1.3-0.8z"/>
										</g>
										<g id="&lt;Group&gt;">
											<g id="&lt;Group&gt;">
												<path id="&lt;Path&gt;" class="s10" d="m1929.6 1831.9c-6.2 3.3-11.1 8.2-13.9 14.3-4.9 11.2-1.4 23.5 7.7 34.3 5.9 7.2 14.4 13.4 24.6 17.5 26 10.5 53.7 4.1 61.9-14.4 3-6.9 3-14.4 0.3-21.8-4.4-12.3-19.7-16.1-35.9-22.7"/>
											</g>
											<g id="&lt;Group&gt;">
												<path id="&lt;Path&gt;" class="s1" d="m1916.8 1846.7c-4 10.5 0.2 21.7 6.9 30.1 6.9 8.4 16.2 14.8 26.4 18.7 10.1 4.1 21.4 5.7 32.2 4.3 10.6-1.5 21.4-6.7 26.7-16.6 0.3-0.4 0.8-0.6 1.3-0.3 0.4 0.2 0.6 0.7 0.4 1.1-2 5.6-6.1 10.4-11 13.9-5 3.5-10.7 5.7-16.6 6.9-11.8 2.4-24.1 0.6-35.2-3.5-11.1-4.4-21.4-11.5-28.4-21.3-3.5-4.9-6.2-10.5-7.4-16.5-1.1-6-0.3-12.5 2.6-17.7 0.3-0.6 1-0.8 1.5-0.5 0.5 0.2 0.8 0.9 0.6 1.4z"/>
											</g>
											<g id="&lt;Group&gt;">
												<path id="&lt;Path&gt;" class="s11" d="m1967.3 1837c-20.8-4.3-39.6 4.5-42.1 19.8-2.5 15.3 12.4 31.2 33.2 35.6 20.7 4.3 39.6-4.6 42-19.8 2.5-15.3-12.3-31.2-33.1-35.6z"/>
											</g>
											<g id="&lt;Group&gt;">
												<path id="&lt;Path&gt;" class="s10" d="m1966 1851.9c-17.9-2.4-32.9 4.9-33.6 16.3-0.8 11.4 13.1 22.5 30.9 24.9 17.9 2.4 32.9-4.9 33.6-16.3 0.8-11.4-13.1-22.5-30.9-24.9z"/>
											</g>
											<g id="&lt;Group&gt;">
												<path id="&lt;Path&gt;" class="s1" d="m1987.5 1888.9c3-1.8 5.6-4.1 7.4-6.8 1.9-2.8 2.9-5.9 3.2-9.1 0.7-6.5-2.3-13-6.5-18-8.6-10.3-22.3-16.3-35.7-16.6-6.6-0.1-13.5 1.1-18.9 4.7-5.4 3.4-8.9 9.2-9 15.6-0.2 6.4 3 12.8 7.4 18 4.4 5.3 10.2 9.4 16.5 12.5 0.5 0.2 0.7 0.8 0.5 1.2-0.2 0.4-0.7 0.6-1.1 0.5-7-2.4-13.5-6.3-18.8-11.6-5.1-5.4-9.3-12.4-9.6-20.6-0.5-8.1 4.3-16.1 10.9-20.4 6.7-4.5 14.6-6.1 22.2-6.1 7.7 0.2 15.2 2.1 22 5.4 6.8 3.2 13.2 7.8 17.8 14 4.6 6.1 7.8 13.9 6.6 21.9-1.2 7.9-6.9 14.5-13.8 17.5-0.6 0.2-1.3-0.1-1.5-0.6-0.2-0.6 0-1.2 0.4-1.5z"/>
											</g>
										</g>
										<g id="&lt;Group&gt;">
											<g id="&lt;Group&gt;">
												<path id="&lt;Path&gt;" class="s10" d="m2045.2 1705.3c4.7-3.1 8.2-7.3 9.9-12.3 3-9.2-0.7-18.6-8.7-26.4-5.2-5.2-12.3-9.4-20.7-11.9-21.2-6.3-42.5 1-47.6 16.1-1.8 5.6-1.2 11.6 1.4 17.2 4.5 9.4 14.7 17.1 28 21.1"/>
											</g>
											<g id="&lt;Group&gt;">
												<path id="&lt;Path&gt;" class="s1" d="m2054 1692.6c2-8.5-2.1-16.7-8-22.6-6-6-13.7-10.2-21.9-12.5-8.2-2.4-17-2.8-25.3-1-8.2 1.9-16.1 6.6-19.8 14.6-0.2 0.5-0.7 0.7-1.2 0.5-0.4-0.2-0.6-0.7-0.5-1.1 1-4.6 3.9-8.8 7.5-12 3.7-3.2 8.1-5.4 12.6-6.9 9.2-2.9 19.2-2.6 28.3-0.1 9.2 2.6 17.9 7.5 24.2 14.9 3.1 3.6 5.7 7.8 7.1 12.6 1.3 4.7 1.1 10-0.9 14.3-0.2 0.6-0.9 0.9-1.5 0.7-0.5-0.3-0.8-0.8-0.6-1.4z"/>
											</g>
											<g id="&lt;Group&gt;">
												<path id="&lt;Path&gt;" class="s11" d="m2015.2 1704.2c16.7 1.8 30.8-6.6 31.6-18.8 0.8-12.2-12.1-23.6-28.8-25.4-16.7-1.9-30.8 6.6-31.6 18.8-0.7 12.2 12.1 23.6 28.8 25.4z"/>
											</g>
											<g id="&lt;Group&gt;">
												<path id="&lt;Path&gt;" class="s10" d="m2015.1 1692.4c14.2 0.5 25.5-6.4 25.2-15.4-0.3-9-12.1-16.7-26.3-17.2-14.2-0.5-25.5 6.4-25.2 15.4 0.3 9 12.1 16.7 26.3 17.2z"/>
											</g>
											<g id="&lt;Group&gt;">
												<path id="&lt;Path&gt;" class="s1" d="m1995.4 1665.1c-4.3 3.3-7 8.2-6.7 13.2 0 5 2.8 9.7 6.5 13.2 7.4 7.2 18.5 10.9 28.8 10.1 5.2-0.4 10.3-1.9 14.2-5 3.9-3 6.1-7.6 5.7-12.4-0.2-4.9-3.2-9.6-6.9-13.4-3.8-3.8-8.6-6.6-13.8-8.6-0.5-0.2-0.7-0.8-0.5-1.2 0.1-0.5 0.6-0.7 1-0.6 5.7 1.2 11.2 3.8 15.9 7.6 4.5 3.8 8.5 9.1 9.4 15.6 1 6.6-2.2 13.5-7.2 17.5-5 4.1-11.2 6-17.3 6.6-6.1 0.5-12.3-0.5-18-2.5-5.7-2.1-11.1-5.3-15.3-9.9-4.1-4.5-7.2-10.6-6.9-17.1 0.5-6.5 4.6-12.2 9.9-15 0.6-0.3 1.3-0.1 1.6 0.5 0.2 0.5 0.1 1.1-0.4 1.4z"/>
											</g>
										</g>
										<g id="&lt;Group&gt;">
											<path id="&lt;Path&gt;" class="s10" d="m2075.7 1792.5c-3.2 13.7 0.6 24.7 8.4 24.5 7.8-0.2 16.7-11.5 19.9-25.2 3.1-13.8-0.6-24.8-8.4-24.6-7.8 0.2-16.7 11.5-19.9 25.3z"/>
										</g>
										<g id="&lt;Group&gt;">
											<path id="&lt;Path&gt;" class="s1" d="m2110.2 1772.4c-1.4-2.1-3.1-3.8-5.1-4.8-2-1-4.3-1.2-6.5-0.8-4.4 0.7-8.5 3.7-11.6 7.3-6.3 7.4-10.1 17.2-10.3 26.8-0.2 4.8 0.6 9.7 3 13.4 2.3 3.6 6.3 5.3 10.7 4.5 4.3-0.9 8.5-3.9 11.8-7.6 3.5-3.5 6.1-8 8.3-12.6v-0.1c0.2-0.4 0.8-0.6 1.3-0.4 0.4 0.2 0.6 0.6 0.5 1.1-1.4 5.1-3.8 10.1-7.1 14.5-3.3 4.4-7.8 8.3-13.6 10-2.9 0.8-6.3 0.9-9.3-0.3-3.1-1.2-5.6-3.4-7.4-5.9-3.5-5.1-4.4-11.1-4.4-16.7 0.1-5.7 1.5-11.2 3.6-16.3 2.1-5.1 5-10 8.9-14.1 4-3.9 9-7.4 15.1-7.9 3-0.2 6.2 0.5 8.7 2.2 2.5 1.6 4.3 4 5.4 6.6 0.3 0.6 0 1.3-0.6 1.5-0.5 0.2-1.1 0-1.4-0.4z"/>
										</g>
										<g id="&lt;Group&gt;" style="opacity: .6">
											<path id="&lt;Path&gt;" class="s4" d="m2098.1 1730.4c-5.9 14.1 11.3 36.1 3 76-3.4 17 17.2 5.5 18.5-28.8 1.2-31.7-17.3-57.1-21.5-47.2z"/>
										</g>
										<g id="&lt;Group&gt;" style="opacity: .6">
											<path id="&lt;Path&gt;" class="s4" d="m2073.1 1695.8c1.3 5.6 10.7 11.7 16.7 21.8 6.5 10.8 15.9 8.6 7.9-11.6-8.5-21.5-27-20.7-24.6-10.2z"/>
										</g>
										<g id="&lt;Group&gt;">
											<path id="&lt;Compound Path&gt;" class="s1" d="m1994.2 1915c-22.5 0-45.2-5.5-66.1-17.2-51.2-28.4-78.5-86.2-68.1-143.7 2.7-14.7 7.8-28.8 15.1-41.9 11.2-20.2 27.5-37.4 47-49.5 3-1.9 6.1-3.7 9.3-5.3 17.1-8.9 36.2-14.1 55.4-15.2h0.6c1.1-0.1 2.3-0.2 3.5-0.2q3.5-0.1 7 0c16.5 0.4 32.5 3.8 47.7 10 5.1 2 10.2 4.5 15.1 7.2q1.6 0.9 3.2 1.8 0.9 0.5 1.8 1.1c44.9 27.4 70.1 79 64.4 131.3-0.6 5.3-1.5 10.6-2.7 15.9-2.9 12.4-7.5 24.3-13.7 35.5-24.9 44.8-71.5 70.2-119.5 70.2zm0.3-266.8q-1.7 0-3.5 0-1.7 0.1-3.4 0.2h-0.5c-18.2 1-36.5 6-52.8 14.5-3.1 1.6-6.1 3.3-8.9 5.1-18.7 11.6-34.2 27.9-44.9 47.2-7 12.5-11.8 26-14.3 40-10 54.9 16.1 110.1 64.9 137.2 62.8 34.9 142.3 12.2 177.2-50.6 5.9-10.7 10.3-22.1 13-33.9 1.2-5 2.1-10.1 2.6-15.2 5.5-49.9-18.6-99.1-61.4-125.3q-0.9-0.5-1.8-1.1-1.5-0.9-3-1.7c-4.7-2.6-9.5-4.9-14.4-6.9-14.6-5.9-29.9-9.1-45.5-9.5q-1.6 0-3.3 0z"/>
										</g>
									</g>
								</g>
							</g>
							<g id="&lt;Group&gt;">
								<path id="&lt;Compound Path&gt;" class="s1" d="m1800.9 2436.5c-185.2 0-362.5-62.2-495.5-175.5-141.8-120.8-224.1-288-237.8-483.5-12.6-179.6 53.7-357.1 186.6-499.6 147.6-158.3 360.2-252.8 568.8-252.8q0.1 0 0.1 0c115.9 0 220.4 20.4 310.7 60.7l1.7 0.7 1.5 1.1c109.8 79.1 196.8 186.2 251.6 309.7 94.8 213.6 85.7 453.9-24.8 659.4-61.3 113.9-151.7 210.7-261.4 279.9-23.2 14.6-47.3 28.1-71.7 40-11 5.5-23.1 11.1-36.9 17.1-37.6 16-76.4 29.1-115.7 39l-2.8 0.4c-24.9 2.3-49.7 3.4-74.4 3.4zm22.1-1374.8c-198.6 0-401.2 90.2-542 241.2-125.9 135-188.7 302.7-176.8 472 13 185.5 90.8 344 224.9 458.2 143 121.8 340.3 181.4 541.5 163.7 36.9-9.4 73.4-21.7 108.7-36.8 13.1-5.7 24.7-11 35.2-16.3 23.3-11.4 46.2-24.2 68.3-38.1 104.4-65.9 190.4-158 248.7-266.3 105.1-195.4 113.7-424 23.6-627.1-51.9-117-134.2-218.5-238-293.7-85.1-37.7-184-56.7-294-56.8q0 0-0.1 0zm524.6 986.3h0.1z"/>
							</g>
							<g id="&lt;Group&gt;">
								<path id="&lt;Compound Path&gt;" class="s1" d="m1799.3 2360.9c-104.6 0-207.9-22.3-302.7-67.6-206.3-98.5-334-288.3-350.3-520.8-11.2-160.4 47.9-318.8 166.5-446 131.7-141.2 321.5-225.5 507.6-225.5q0 0 0.1 0c320.7 0 531.7 171.4 627.1 509.6l0.6 2.8c0.9 7.4 21.6 184.6-27.5 306.8-48 119.3-113.7 225.4-116.5 229.8l-1.5 2.1-53.4 63.7-2 1.4c-136.1 95-293.3 143.7-448 143.7zm21.1-1223.3c-176.2 0-355.9 80-480.8 213.9-111.6 119.7-167.2 268.3-156.7 418.4 15.3 219 135.4 397.7 329.5 490.4 222.4 106.2 495 78.7 711.9-71.8l49.4-58.9c7.1-11.5 68.7-113.1 112.9-223.1 43.5-108 27.2-270.9 25.4-287.4-90.7-319.5-289.7-481.5-591.6-481.5q0 0 0 0zm416.4 1064.5z"/>
							</g>
							<g id="&lt;Group&gt;">
								<path id="&lt;Path&gt;" class="s4" d="m831.9 1740.1c-7.6 145.6 73.2 272.6 180.5 283.6 107.3 11 200.4-98.2 208.1-243.8 0-0.9 0-1.9 0.1-2.8 6.4-144.4-74.1-269.9-180.6-280.8-82.9-8.4-157.4 54.8-190.5 151.1-9.7 28.3-15.9 59.6-17.6 92.7z"/>
							</g>
							<g id="&lt;Group&gt;" style="opacity: .1">
								<path id="&lt;Path&gt;" class="s1" d="m831.9 1740.1c-7.6 145.6 73.2 272.6 180.5 283.6 107.3 11 200.4-98.2 208.1-243.8 0-0.9 0-1.9 0.1-2.8-12.6 13.7-31.7 26.6-56.4 19.1-43.1-13.2-116.4-114.8-116.4-114.8 0 0-85.9-15.3-198.3-34-9.7 28.3-15.9 59.6-17.6 92.7z"/>
							</g>
							<g id="&lt;Group&gt;">
								<path id="&lt;Compound Path&gt;" class="s1" d="m1027.5 2049.8q-8.8 0-17.7-0.9c-120.4-12.3-211.6-151.4-203.3-310.1l25.4 1.3-25.4-1.3c4.8-91.4 40.8-172.3 98.8-222 40.8-34.9 88.3-50.7 137.3-45.7 120.3 12.3 211.5 151.4 203.2 310.1-4.8 91.4-40.8 172.3-98.8 222-35.8 30.7-76.8 46.6-119.5 46.6zm-2.4-528.8c-30.5 0-60.3 11.7-86.7 34.4-46.8 40.1-77.2 109.6-81.2 186.1-6.9 132 63.9 247.3 157.8 256.9 34.8 3.6 69-8.1 99-33.8 46.8-40.1 77.1-109.6 81.1-186.1 6.9-132-63.8-247.3-157.7-256.9q-6.2-0.6-12.3-0.6z"/>
							</g>
							<g id="&lt;Group&gt;">
								<path id="&lt;Path&gt;" class="s4" d="m813.2 1845.5c30 109.8 121.2 168.8 203.6 131.8 82.3-37 124.7-156.1 94.7-265.9-30.1-109.7-121.2-168.7-203.6-131.7-82.4 37-124.8 156-94.7 265.8z"/>
								<path id="&lt;Compound Path&gt;" class="s1" d="m966.2 1990.4c-18.4 0-36.7-4.3-54.6-12.7-46.9-22.1-83.4-70.1-100.3-131.7-30.2-110.5 12.7-230.7 95.8-268.1 34.5-15.5 71.2-15 106 1.4 46.8 22.1 83.4 70.1 100.2 131.6 30.3 110.5-12.7 230.8-95.7 268.1-16.8 7.6-34.1 11.4-51.4 11.4zm-151.2-145.4c16.6 60.5 52.4 107.6 98.2 129.2 33.8 16 69.3 16.4 102.8 1.4 81.4-36.6 123.4-154.9 93.6-263.6-16.5-60.6-52.3-107.6-98.1-129.2-33.8-16-69.4-16.4-102.8-1.4-81.5 36.6-123.5 154.9-93.7 263.6z"/>
							</g>
							<g id="&lt;Group&gt;" style="opacity: .1">
								<path id="&lt;Path&gt;" class="s1" d="m1107.4 1875.6c11.8-37.9 13.1-79.3 5.7-118.6-34.4 84.3-115.4 114.9-187.9 67.9-46.8-30.4-79.2-86.2-90.6-147-2.2 5.3-4.2 10.9-6 16.6-30.1 96.7 8 215.6 85 265.6 77 50 163.7 12.1 193.8-84.5z"/>
							</g>
							<g id="&lt;Group&gt;">
								<path id="&lt;Compound Path&gt;" class="s1" d="m962.7 2014q-7 0-14.1-0.8c-95.5-10.5-165.3-123.7-158.8-257.6 3.8-77.8 34.2-148.3 81.3-188.5 31.1-26.6 67-38.4 103.9-34.4 95.5 10.6 165.2 123.7 158.8 257.7-3.8 77.8-34.2 148.3-81.3 188.5-27.1 23.1-57.9 35.1-89.8 35.1zm-147.5-257.2l25.3 1.3c-5 103.6 47.1 197.3 113.7 204.7 28.5 3.1 51.2-10.5 65.3-22.5 36.7-31.3 60.4-88.3 63.5-152.4 5-103.6-47-197.3-113.6-204.7-28.5-3.1-51.3 10.5-65.3 22.5-36.7 31.3-60.5 88.3-63.6 152.4z"/>
							</g>
							<g id="&lt;Group&gt;" style="opacity: .5">
								<path id="&lt;Path&gt;" class="s4" d="m1637.7 1261.9c0 0 330-4.5 512.5 182.9q0.3 0.3 0.6 0.6c38.3 39.5 65.2 113.7 78.2 166.8 17.2 70.2 18.6 121 18.1 165.8-1.6 136.1-28.2 199.5-28.2 199.5 79.4-70.6 124.6-151.6 127-264.9 0.2-11.2 0-22.8-0.5-34.6q-0.2-4.1-0.6-8.1 0.1-0.1 0-0.2c-2.9-23.9-7.9-55.2-16.5-90-26-105.1-84.6-242.5-216.9-308-247.3-122.5-484.9-24.2-473.7-9.8z"/>
							</g>
							<g id="&lt;Group&gt;" style="opacity: .5">
								<path id="&lt;Path&gt;" class="s4" d="m1482.2 1617.5c-17.3 61.2-74.6 98.6-127.9 83.6-53.3-15-82.4-76.7-65-137.8 17.4-61.2 74.6-98.6 127.9-83.6 53.3 14.9 82.4 76.7 65 137.8z"/>
							</g>
							<g id="&lt;Group&gt;" style="opacity: .5">
								<path id="&lt;Path&gt;" class="s4" d="m1367.3 1806.1c-9.3 24.5-34.2 38-55.6 30-21.4-8-31.2-34.4-21.9-59 9.3-24.5 34.2-38 55.6-30 21.4 8 31.2 34.4 21.9 59z"/>
							</g>
						</g>
						<g id="&lt;Group&gt;">
							<g id="&lt;Group&gt;">
								<path id="&lt;Path&gt;" class="s0" d="m1346.2 2471.1c0 0 238.8-145.7 473.2-145.8 265.7-0.2 298.1 252.8 154.1 320.8-135.2 63.9-452.3 26-452.3 26"/>
							</g>
							<g id="&lt;Group&gt;">
								<path id="&lt;Path&gt;" class="s1" d="m1720.7 2708.7c-104.8 0-195.5-10.6-202.5-11.4-14-1.7-23.9-14.3-22.2-28.3 1.6-13.9 14.3-23.8 28.2-22.2 3.1 0.4 311.4 36.4 438.4-23.6 53.5-25.3 80.3-82.6 66.8-142.6-14.1-62.9-76.6-129.9-209.8-129.9q-0.1 0-0.2 0c-224.3 0.1-457.7 140.7-460 142.1-12 7.3-27.6 3.5-34.9-8.5-7.3-11.9-3.5-27.6 8.4-34.9 10-6.1 247.7-149.4 486.4-149.5q0.2 0 0.3 0c163.1 0 240.9 87.5 259.4 169.5 18.5 82.5-20.4 164.6-94.7 199.7-66 31.2-170.4 39.6-263.6 39.6z"/>
							</g>
						</g>
					</g>
					<g id="&lt;Group&gt;">
						<path id="&lt;Path&gt;" class="s12" d="m878.4 3327.6h-48.4c-28.2 0-51.2-22.9-51.2-51.2v-589c0-28.3 23-51.2 51.2-51.2h48.4c28.2 0 51.2 22.9 51.2 51.2v589c0 28.3-23 51.2-51.2 51.2z"/>
					</g>
					<g id="&lt;Group&gt;" style="opacity: .2">
						<path id="&lt;Path&gt;" class="s1" d="m891.9 3325.8c-4.3 1.2-8.8 1.8-13.5 1.8h-48.4c-28.2 0-51.2-22.9-51.2-51.2v-589.1c0-28.2 23-51.1 51.2-51.1h48.4c4.7 0 9.2 0.6 13.5 1.8-21.7 5.9-37.7 25.7-37.7 49.3v589.1c0 23.7 16 43.5 37.7 49.4z"/>
					</g>
					<g id="&lt;Group&gt;">
						<path id="&lt;Compound Path&gt;" class="s1" d="m878.4 3353h-48.4c-42.2 0-76.5-34.3-76.5-76.6v-589c0-42.3 34.3-76.6 76.5-76.6h48.4c42.2 0 76.6 34.3 76.6 76.6v589c0 42.3-34.4 76.6-76.6 76.6zm-48.4-691.4c-14.2 0-25.8 11.5-25.8 25.8v589c0 14.2 11.6 25.8 25.8 25.8h48.4c14.2 0 25.8-11.6 25.8-25.8v-589c0-14.3-11.6-25.8-25.8-25.8z"/>
					</g>
					<g id="&lt;Group&gt;">
						<g id="&lt;Group&gt;">
							<path id="&lt;Path&gt;" class="s12" d="m1366.7 3327.6h-48.4c-28.2 0-51.1-22.9-51.1-51.2v-589c0-28.3 22.9-51.2 51.1-51.2h48.4c28.3 0 51.2 22.9 51.2 51.2v589c0 28.3-22.9 51.2-51.2 51.2z"/>
						</g>
						<g id="&lt;Group&gt;" style="opacity: .2">
							<path id="&lt;Path&gt;" class="s1" d="m1380.2 3325.8c-4.3 1.2-8.8 1.8-13.5 1.8h-48.4c-28.2 0-51.1-22.9-51.1-51.2v-589.1c0-28.2 22.9-51.1 51.1-51.1h48.4c4.7 0 9.2 0.6 13.5 1.8-21.7 5.9-37.7 25.7-37.7 49.3v589.1c0 23.7 16 43.5 37.7 49.4z"/>
						</g>
						<g id="&lt;Group&gt;">
							<path id="&lt;Compound Path&gt;" class="s1" d="m1366.7 3353h-48.4c-42.2 0-76.5-34.3-76.5-76.6v-589c0-42.3 34.3-76.6 76.5-76.6h48.4c42.2 0 76.6 34.3 76.6 76.6v589c0 42.3-34.4 76.6-76.6 76.6zm-48.4-691.4c-14.2 0-25.7 11.5-25.7 25.8v589c0 14.2 11.5 25.8 25.7 25.8h48.4c14.2 0 25.8-11.6 25.8-25.8v-589c0-14.3-11.6-25.8-25.8-25.8z"/>
						</g>
					</g>
					<g id="&lt;Group&gt;">
						<g id="&lt;Group&gt;">
							<path id="&lt;Path&gt;" class="s12" d="m2890.9 3327.6h-48.4c-28.2 0-51.1-22.9-51.1-51.2v-589c0-28.3 22.9-51.2 51.1-51.2h48.4c28.3 0 51.2 22.9 51.2 51.2v589c0 28.3-22.9 51.2-51.2 51.2z"/>
						</g>
						<g id="&lt;Group&gt;" style="opacity: .2">
							<path id="&lt;Path&gt;" class="s1" d="m2904.4 3325.8c-4.3 1.2-8.8 1.8-13.5 1.8h-48.4c-28.2 0-51.1-22.9-51.1-51.2v-589.1c0-28.2 22.9-51.1 51.1-51.1h48.4c4.7 0 9.2 0.6 13.5 1.8-21.7 5.9-37.7 25.7-37.7 49.3v589.1c0 23.7 16 43.5 37.7 49.4z"/>
						</g>
						<g id="&lt;Group&gt;">
							<path id="&lt;Compound Path&gt;" class="s1" d="m2890.9 3353h-48.4c-42.2 0-76.5-34.3-76.5-76.6v-589c0-42.3 34.3-76.6 76.5-76.6h48.4c42.2 0 76.6 34.3 76.6 76.6v589c0 42.3-34.4 76.6-76.6 76.6zm-48.4-691.4c-14.2 0-25.7 11.5-25.7 25.8v589c0 14.2 11.5 25.8 25.7 25.8h48.4c14.2 0 25.8-11.6 25.8-25.8v-589c0-14.3-11.6-25.8-25.8-25.8z"/>
						</g>
					</g>
					<g id="&lt;Group&gt;">
						<g id="&lt;Group&gt;">
							<path id="&lt;Path&gt;" class="s12" d="m3379.2 3327.6h-48.4c-28.2 0-51.1-22.9-51.1-51.2v-589c0-28.3 22.9-51.2 51.1-51.2h48.4c28.3 0 51.2 22.9 51.2 51.2v589c0 28.3-22.9 51.2-51.2 51.2z"/>
						</g>
						<g id="&lt;Group&gt;" style="opacity: .2">
							<path id="&lt;Path&gt;" class="s1" d="m3392.7 3325.8c-4.3 1.2-8.8 1.8-13.5 1.8h-48.4c-28.2 0-51.1-22.9-51.1-51.2v-589.1c0-28.2 22.9-51.1 51.1-51.1h48.4c4.7 0 9.2 0.6 13.5 1.8-21.7 5.9-37.7 25.7-37.7 49.3v589.1c0 23.7 16 43.5 37.7 49.4z"/>
						</g>
						<g id="&lt;Group&gt;">
							<path id="&lt;Compound Path&gt;" class="s1" d="m3379.2 3353h-48.4c-42.2 0-76.5-34.3-76.5-76.6v-589c0-42.3 34.3-76.6 76.5-76.6h48.4c42.2 0 76.6 34.3 76.6 76.6v589c0 42.3-34.4 76.6-76.6 76.6zm-48.4-691.4c-14.2 0-25.7 11.5-25.7 25.8v589c0 14.2 11.5 25.8 25.7 25.8h48.4c14.2 0 25.8-11.6 25.8-25.8v-589c0-14.3-11.6-25.8-25.8-25.8z"/>
						</g>
					</g>
					<g id="&lt;Group&gt;">
						<path id="&lt;Path&gt;" class="s12" d="m3482 2701.7h-2769.4c-20.6 0-37.3-16.8-37.3-37.4v-76c0-20.6 16.7-37.4 37.3-37.4h2769.4c20.6 0 37.3 16.8 37.3 37.4v76c0 20.6-16.7 37.4-37.3 37.4z"/>
					</g>
					<g id="&lt;Group&gt;" style="opacity: .6">
						<path id="&lt;Path&gt;" class="s4" d="m680.3 2633.8c0-20.6 16.7-37.3 37.4-37.3h2769.3c13.8 0 25.8 7.5 32.3 18.6v-26.8c0-20.6-16.7-37.4-37.3-37.4h-2769.4c-20.6 0-37.3 16.8-37.3 37.4v76c0 6.8 1.8 13.2 5 18.7z"/>
					</g>
					<g id="&lt;Group&gt;" style="opacity: .2">
						<path id="&lt;Path&gt;" class="s1" d="m3519.3 2589v75.3c0 20.7-16.7 37.4-37.3 37.4h-2769.4c-20.6 0-37.3-16.7-37.3-37.4v-75.3c0 20.6 16.7 37.4 37.3 37.4h2769.4c20.6 0 37.3-16.8 37.3-37.4z"/>
					</g>
					<g id="&lt;Group&gt;">
						<path id="&lt;Compound Path&gt;" class="s1" d="m3482 2727.1h-2769.4c-34.6 0-62.7-28.2-62.7-62.8v-76c0-34.6 28.1-62.7 62.7-62.7h2769.4c34.6 0 62.7 28.1 62.7 62.7v76c0 34.6-28.1 62.8-62.7 62.8zm-2769.4-150.8c-6.6 0-11.9 5.4-11.9 12v76c0 6.6 5.3 12 11.9 12h2769.4c6.5 0 11.9-5.4 11.9-12v-76c0-6.6-5.4-12-11.9-12z"/>
					</g>
					<g id="&lt;Group&gt;">
						<path id="&lt;Compound Path&gt;" class="s1" d="m1467.3 2727.1h-754.7c-34.6 0-62.7-28.2-62.7-62.8v-76c0-34.6 28.1-62.7 62.7-62.7h754.7c34.6 0 62.7 28.1 62.7 62.7v76c0 34.6-28.1 62.8-62.7 62.8zm-754.7-150.8c-6.6 0-11.9 5.4-11.9 12v76c0 6.6 5.3 12 11.9 12h754.7c6.6 0 11.9-5.4 11.9-12v-76c0-6.6-5.3-12-11.9-12z"/>
					</g>
					<g id="&lt;Group&gt;">
						<g id="&lt;Group&gt;">
							<path id="&lt;Path&gt;" class="s2" d="m3248.6 1695.3h-786.2c-47.2 0-88.9 30.8-102.8 75.9l-181.7 588.6c-13.9 45 19.8 90.7 67 90.7h847.9c40.8 0 76.9-26.6 88.9-65.7l169.8-550.1c21.4-69.2-30.4-139.4-102.9-139.4z"/>
						</g>
						<g id="&lt;Group&gt;">
							<path id="&lt;Path&gt;" class="s2" d="m3268.8 1742.7h-829c-47.3 0-89 30.8-102.9 76l-181.6 588.5c-13.9 45.1 19.7 90.7 66.9 90.7h847.9c40.9 0 76.9-26.6 89-65.6l182.4-591.1c15.1-48.9-21.5-98.5-72.7-98.5z"/>
						</g>
						<g id="&lt;Group&gt;" style="opacity: .6">
							<path id="&lt;Path&gt;" class="s4" d="m3351.5 1834.7l-169.8 550.1c-3.8 12.5-10.1 23.6-18.2 33.1l178-576.7c15.1-48.9-21.5-98.5-72.7-98.5h-829.1c-33.2 0-63.7 15.3-83.7 40.1l3.6-11.6c13.9-45.1 55.6-75.9 102.8-75.9h786.2c72.5 0 124.3 70.2 102.9 139.4z"/>
						</g>
						<g id="&lt;Group&gt;" style="opacity: .2">
							<path id="&lt;Path&gt;" class="s1" d="m3178.4 2393.9c-14.4 34-48 56.6-85.6 56.6h-847.9c-47.2 0-80.9-45.7-67-90.7l181.7-588.6c13.9-45.1 55.6-75.9 102.8-75.9h6.4c-3.3 6-6 12.5-8.1 19.3l-196 635.1c-6.7 22 9.6 44.2 32.6 44.2z"/>
						</g>
						<g id="&lt;Group&gt;">
							<path id="&lt;Path&gt;" class="s2" d="m3131.9 2550.9h-1458.3c-25.1 0-45.5-20.3-45.5-45.4v-9.6c0-25.1 20.4-45.4 45.5-45.4h1458.3c25.1 0 45.5 20.3 45.5 45.4v9.6c0 25.1-20.4 45.4-45.5 45.4z"/>
						</g>
						<g id="&lt;Group&gt;" style="opacity: .2">
							<path id="&lt;Path&gt;" class="s1" d="m3177.4 2495.9v9.6c0 25.1-20.3 45.5-45.4 45.5h-1458.4c-25.1 0-45.5-20.4-45.5-45.5v-9.6c0-7.1 1.6-13.8 4.5-19.7 7.4 15.2 22.9 25.7 41 25.7h1458.4c18 0 33.5-10.5 40.9-25.7 2.9 5.9 4.5 12.6 4.5 19.7z"/>
						</g>
						<g id="&lt;Group&gt;">
							<path id="&lt;Compound Path&gt;" class="s1" d="m3131.9 2576.3h-1458.3c-39.1 0-70.9-31.7-70.9-70.8v-9.6c0-39.1 31.8-70.8 70.9-70.8h1458.3c39.1 0 70.9 31.7 70.9 70.8v9.6c0 39.1-31.8 70.8-70.9 70.8zm-1458.3-100.4c-11.1 0-20.1 9-20.1 20v9.6c0 11.1 9 20.1 20.1 20.1h1458.3c11.1 0 20.1-9 20.1-20.1v-9.6c0-11-9-20-20.1-20z"/>
						</g>
						<g id="&lt;Group&gt;">
							<path id="&lt;Compound Path&gt;" class="s1" d="m3092.8 2475.9h-847.9c-30.7 0-58.6-14.2-76.8-38.8-18.2-24.6-23.5-55.6-14.4-84.8l181.6-588.6c17.3-56.1 68.4-93.8 127.1-93.8h786.2c42.7 0 81.7 19.7 107.1 54.1 25.3 34.3 32.7 77.4 20.1 118.2l-169.8 550.1c-15.4 50-60.9 83.6-113.2 83.6zm-630.4-755.2c-36.3 0-67.9 23.3-78.6 58l-181.6 588.6c-4.2 13.7-1.8 28.1 6.7 39.6 8.5 11.6 21.6 18.2 36 18.2h847.9c29.9 0 55.9-19.2 64.7-47.7l169.7-550.2c7.8-25.2 3.3-51.8-12.4-73.1-15.7-21.2-39.8-33.4-66.2-33.4z"/>
						</g>
						<g id="&lt;Group&gt;">
							<path id="&lt;Compound Path&gt;" class="s1" d="m2129.4 2576.3h-454.2c-39.1 0-70.8-31.7-70.8-70.8v-9.6c0-39.1 31.7-70.8 70.8-70.8h454.2c39 0 70.8 31.7 70.8 70.8v9.6c0 39.1-31.8 70.8-70.8 70.8zm-454.2-100.4c-11.1 0-20 9-20 20v9.6c0 11.1 8.9 20.1 20 20.1h454.2c11 0 20-9 20-20.1v-9.6c0-11-9-20-20-20z"/>
						</g>
						<g id="&lt;Group&gt;">
							<g id="&lt;Group&gt;">
								<path id="&lt;Compound Path&gt;" class="s4" d="m2785.2 2279.4c-12.2 0-21.5-9.5-22.2-22.7-0.9-15.1-1.6-30.2-2.3-45.4l-0.5-9.8q-0.3 0-0.6 0c-9.8 0-15.7-6-19.7-11.1q-3.6-4.7-7.3-9.6-3.2 2.5-6.4 4.8c-4 2.8-8.5 4.3-13.1 4.3-4.1 0-8.1-1.1-11.9-3.4-8.7-5.1-12.8-15.2-10-24.5 1.3-4.5 4.2-9.1 8-12.6 1.9-1.7 3.8-3.2 5.7-4.7q-1.8-2.3-3.5-4.6l-0.7-0.9q-0.3-0.5-0.6-0.9c-7.1-7.6-9.9-16.1-8.1-24.5l-50.9-16.4c-8.4-2.8-14.3-8.6-16.3-15.9-2.1-7.3-0.1-15.2 5.4-21.8 13.3-15.9 31.5-36.1 55-50.9 21.4-13.4 42.2-20 63.6-20q2.4 0 4.7 0.1c9.6 0.5 18 2.2 25.6 5.2l3.4-3.2c7-6.7 14.2-13.6 22.1-19.8 26.2-21.1 57.1-33 94.6-36.2 6.3-0.5 12.6-0.8 18.8-0.8 19.4 0 39.3 2.6 59.2 7.7 2.9 0.8 5.6 1.8 8 2.8q1.5 0.6 3 1.2c2 0.7 3.7 1.9 5 3.6 0.6 0.7 2.5 3.2 3 3.8 1.1 1.4 1.8 3.1 2.2 4.9 2.5 12.7 1.1 24.8-0.3 36.4l-0.2 1.8c-3.7 32.8-13.7 62.6-29.7 88.3-12.8 20.7-29.3 37.6-48.8 50.4-4.4 2.8-8.7 5.5-13.1 8.2q-4 2.4-7.9 4.9c2.8 26.3-5.4 50.7-24.8 74.5-13.2 16.1-30.2 29.7-52.1 41.6-7.8 4.2-16 8.3-25 12.6-3.7 1.7-7.5 2.6-11.3 2.6zm21.4-59.1c10.1-6.2 18.1-12.4 25.1-19.1 10-9.9 16.3-19.5 19.7-29.9l-46.4 18q0.8 15.3 1.6 31zm11.6-156.1c5.1 0 9.9 1.7 14 5.1 5.5 4.4 8.6 10.9 8.5 17.8-0.2 7.1-3.7 13.7-9.6 18.2-12.6 9.7-25.3 19.4-37.9 29.1q-11.9 9.1-23.8 18.2c44.1-13.5 77.1-27.1 106.5-43.7 14.6-8.2 25.7-16.1 35-24.9 11.3-10.8 20.5-24.3 28.2-41.4-2-2.4-3.9-5-5.8-7.5l-3.7-4.8c-12.4-16.3-24.8-32.5-37.3-48.7q-15.6 2.2-30.8 8.1c-15.1 5.9-29.2 15.6-45.6 31.5-15.3 14.6-28.9 30.4-40.7 47-10.5 14.9-20.8 30.3-30.8 45.2l-1.7 2.5 20.1-15.4q20.4-15.6 40.8-31.2c4.5-3.4 9.5-5.1 14.6-5.1zm-103.2 9.5c9.7-13.2 19.4-26.3 28.9-39.4-3.1 0.3-6.3 0.8-9.2 1.6-18.8 5.2-34 16.2-47.4 28.8zm237.5-80.8q0.7-5 1.1-9.9l-9.4-1.1z"/>
							</g>
							<g id="&lt;Group&gt;">
								<path id="&lt;Compound Path&gt;" class="s1" d="m2986.8 1995c1.3-11.5 2.8-23.1 0.6-34.8-1-1.3-2-2.6-3-3.9-3.3-1.2-6.5-2.7-10-3.6-24.4-6.3-49.1-8.8-74.2-6.6-32.7 2.8-62.8 12.9-88.6 33.7-9.4 7.5-17.9 16-26.6 24.2-2.4 2.2-4.2 3.2-7.5 1.7-7.7-3.6-16-5.1-24.5-5.5-22.7-1.1-42.9 6.3-61.8 18.1-20.5 12.9-37 30.1-52.4 48.6-6.5 7.8-4 16.5 5.8 19.8 6.1 2 12.3 4 18.4 6 14.7 4.8 29.4 9.5 44.1 14.3 0 0.4 0 0.6 0 0.9-0.2 0.3-0.3 0.6-0.5 0.9-6.1 7.8-4.6 15.1 1.8 22 0.7 0.7 1.3 1.6 1.9 2.5 3.4 4.4 6.9 8.9 10.4 13.5-4.8 3.8-9.7 7-13.9 10.9-2.1 2-4 4.8-4.9 7.6-1.3 4.5 1 9.2 5.1 11.6 4.2 2.5 8.7 2.4 12.6-0.4 5.1-3.6 9.9-7.5 15.1-11.5 4.8 6.4 9.5 12.5 14.1 18.5 5.3 6.8 8.9 8 17.1 5.7 1.5-0.5 3-0.8 4.8-1.2 0.1 1.7 0.2 3.1 0.3 4.5 1 21.2 2 42.5 3.2 63.6 0.5 10.1 8.4 14.8 17.5 10.5 8.2-3.8 16.4-7.9 24.4-12.3 18.5-10 35.3-22.4 48.8-38.8 16.8-20.6 26.1-43.6 21.7-70.8-0.2-1.1 0.7-2.9 1.7-3.5 8.2-5.3 16.7-10.3 25-15.6 18.6-12.2 33.6-28 45.3-46.9 16-25.6 24.8-53.8 28.2-83.7zm-267.5 91.9c-17-5.6-34.7-11.3-52.8-17.2 18.7-19.9 38.5-37.3 65.2-44.6 11.5-3.1 24.8-2.9 32.7 0.3-14.9 20.4-29.9 40.7-45.1 61.5zm142.9 87.3c-4.3 13.8-12.5 25-22.7 35-12.6 12.3-27.3 21.5-43.2 29.9q-1.5-29.3-2.9-57.3c24-9.4 47.5-18.5 71.1-27.7 0.9 6.5-0.2 13.4-2.3 20.1zm88.7-130.7c-7.7 18.3-17.8 34.9-32.3 48.6-11.2 10.6-23.8 19.1-37.2 26.6-36.1 20.4-74.9 34.5-114.5 46.4-1.9 0.5-3.1 0.4-4.4-1.4-2.8-3.9-5.8-7.7-8.8-11.5-0.2-0.3-0.2-0.6-0.5-1.3 1-0.8 2.1-1.6 3.2-2.5 22.6-17.3 45.3-34.6 67.9-52 6.6-5 6.8-13.5 0.8-18.4-4.2-3.5-9.8-3.5-14.7 0.2q-20.4 15.6-40.7 31.2c-10.2 7.7-20.2 15.4-30.7 23.5-3.6-4.7-7.1-9-10.2-13.5-0.6-0.9 0-2.9 0.7-3.9 12-18 24-36.1 36.5-53.7 12.4-17.6 26.5-33.8 42.1-48.7 14.5-14 30.3-26.4 49.4-33.8 12.2-4.8 24.8-8 37.8-9.4 1.2-0.2 2.9 1 3.7 2.1 13.3 17.1 26.4 34.3 39.5 51.4 3.9 5.2 7.8 10.4 11.9 15.4 1.2 1.6 1.3 2.9 0.5 4.7zm7.9-23.9c-13.1-17.2-25.9-33.9-38.7-50.6 0.1-0.4 0.2-0.8 0.2-1.3 14.9 1.8 29.9 3.7 45 5.5-0.3 16.2-2.7 31.1-6.5 46.4z"/>
							</g>
							<g id="&lt;Group&gt;">
								<path id="&lt;Compound Path&gt;" class="s4" d="m2950.4 2038.8c-4.1-5-8-10.2-11.9-15.4-13.1-17.1-26.2-34.3-39.5-51.4-0.8-1.1-2.5-2.3-3.7-2.1-13 1.4-25.6 4.6-37.8 9.4-19.1 7.4-34.9 19.8-49.4 33.8-15.6 14.9-29.7 31.1-42.1 48.7-12.5 17.6-24.5 35.7-36.5 53.7-0.7 1-1.3 3-0.7 3.9 3.1 4.5 6.6 8.8 10.2 13.5 10.5-8.1 20.5-15.8 30.7-23.5q20.3-15.6 40.7-31.2c4.9-3.7 10.5-3.7 14.7-0.2 6 4.9 5.8 13.4-0.8 18.4-22.6 17.4-45.3 34.7-67.9 52-1.1 0.9-2.2 1.7-3.2 2.5 0.3 0.7 0.3 1 0.5 1.3 3 3.8 6 7.6 8.8 11.5 1.3 1.8 2.5 1.9 4.4 1.4 39.6-11.9 78.4-26 114.5-46.4 13.4-7.5 26-16 37.2-26.6 14.5-13.7 24.6-30.3 32.3-48.6 0.8-1.8 0.7-3.1-0.5-4.7zm-39.7 26.2c-17.3 13-41.8 9.8-54.7-7.2-13.1-17-9.8-41.5 7.3-54.7 16.8-12.9 41.3-9.6 54.4 7.4 13 17 9.8 41.8-7 54.5z"/>
							</g>
							<g id="&lt;Group&gt;">
								<path id="&lt;Path&gt;" class="s13" d="m2958.8 2019.5c-13.1-17.1-25.9-33.8-38.7-50.5 0.1-0.4 0.2-0.8 0.2-1.3 14.9 1.8 29.9 3.7 45 5.5-0.3 16.2-2.7 31.1-6.5 46.3z"/>
							</g>
							<g id="&lt;Group&gt;">
								<path id="&lt;Path&gt;" class="s13" d="m2764.4 2025.4c-15 20.4-29.9 40.8-45.1 61.5-17.1-5.6-34.7-11.3-52.8-17.2 18.7-19.9 38.5-37.3 65.2-44.6 11.5-3.2 24.8-2.9 32.7 0.3z"/>
							</g>
							<g id="&lt;Group&gt;">
								<path id="&lt;Path&gt;" class="s13" d="m2839.5 2209.2c-12.6 12.4-27.3 21.5-43.2 29.9q-1.5-29.3-2.9-57.3c24-9.4 47.5-18.5 71.1-27.7 0.9 6.5-0.2 13.4-2.3 20.1-4.3 13.8-12.5 25-22.7 35z"/>
							</g>
							<g id="&lt;Group&gt;">
								<path id="&lt;Compound Path&gt;" class="s1" d="m2917.7 2010.5c-13.1-17-37.6-20.3-54.4-7.4-17.1 13.2-20.4 37.7-7.3 54.7 12.9 17 37.4 20.2 54.7 7.2 16.8-12.7 20-37.5 7-54.5zm-18.7 40.1c-8.7 6.6-21.6 4.9-28.4-3.8-7.1-9.1-5.1-22.3 4.2-29.3 8.7-6.5 21.9-4.6 28.4 4.2 6.9 9.1 5 22-4.2 28.9z"/>
							</g>
							<g id="&lt;Group&gt;">
								<path id="&lt;Path&gt;" class="s3" d="m2899 2050.6c-8.7 6.6-21.6 4.9-28.4-3.9-7.1-9-5.1-22.2 4.2-29.1 8.8-6.6 21.8-4.7 28.4 4.1 6.9 9.1 5 22-4.2 28.9z"/>
							</g>
						</g>
					</g>
				</g>
			</g>
		</g>
	</g>
</svg>